<?xml version="1.0" encoding="UTF-8"?>
<svg version="1.1" xmlns="http://www.w3.org/2000/svg" width="1024" height="876">
<path d="M0 0 C337.92 0 675.84 0 1024 0 C1024 289.08 1024 578.16 1024 876 C686.08 876 348.16 876 0 876 C0 586.92 0 297.84 0 0 Z " fill="#636EB2" transform="translate(0,0)"/>
<path d="M0 0 C337.92 0 675.84 0 1024 0 C1024 289.08 1024 578.16 1024 876 C686.08 876 348.16 876 0 876 C0 586.92 0 297.84 0 0 Z M163 123 C162.28762969 123.31336436 161.57525939 123.62672871 160.8413021 123.94958896 C146.01867761 130.53327893 133.82791488 139.99077504 122 151 C120.73544118 152.09065093 119.46519419 153.17476699 118.1875 154.25 C115.30794075 156.7086492 112.61775517 159.25758982 110 162 C109.34257813 162.66257813 108.68515625 163.32515625 108.0078125 164.0078125 C98.7151011 173.75068985 91.86862138 185.08310305 88 198 C87.608125 199.175625 87.21625 200.35125 86.8125 201.5625 C84.50469879 211.32627435 84.85783673 221.37322625 84.87301636 231.3453064 C84.87186285 232.99942993 84.87027378 234.65355321 84.86828911 236.30767596 C84.86412728 240.83395319 84.86617225 245.36020924 84.86927533 249.88648653 C84.87154208 254.7754763 84.86804344 259.66446248 84.86529541 264.55345154 C84.86085219 274.12401244 84.86180781 283.69456549 84.86470805 293.26512669 C84.86696802 301.04558342 84.86727202 308.82603794 84.86618423 316.6064949 C84.866031 317.71459519 84.86587777 318.82269547 84.86571989 319.96437455 C84.86540016 322.21560744 84.86507595 324.46684032 84.8647473 326.7180732 C84.86189668 347.821475 84.86517285 368.92487245 84.87054767 390.02827354 C84.87501409 408.12497099 84.8742403 426.22166203 84.86962891 444.31835938 C84.86427364 465.34404946 84.86217263 486.36973573 84.86524117 507.39542639 C84.86555971 509.63890878 84.86587408 511.88239117 84.86618423 514.12587357 C84.86633851 515.22964336 84.86649279 516.33341315 84.86665174 517.47063052 C84.86751412 525.2381969 84.86605997 533.00576087 84.86370468 540.77332687 C84.86089587 550.24462157 84.86166772 559.71590798 84.86698543 569.18720172 C84.86960802 574.01699799 84.87065198 578.84678046 84.86733627 583.67657661 C84.86434351 588.10302679 84.86601555 592.52945045 84.87131383 596.95589824 C84.87242534 598.5520335 84.87187511 600.14817103 84.86943804 601.74430482 C84.83299823 627.60622914 89.36972794 648.19962162 107.9921875 667.09375 C122.55543357 681.3703544 141.15733817 691.15144911 161.90161133 691.11352539 C162.91220108 691.11374443 162.91220108 691.11374443 163.94320679 691.1139679 C166.15618174 691.11327472 168.36907111 691.10551036 170.58203125 691.09765625 C172.12188165 691.09578995 173.66173265 691.09436705 175.20158386 691.09336853 C179.24410659 691.08956002 183.28659309 691.07974402 187.32910156 691.06866455 C191.45832835 691.05841455 195.58756102 691.05386323 199.71679688 691.04882812 C207.8112145 691.0381202 215.90560273 691.02106386 224 691 C224.28883057 691.75885498 224.57766113 692.51770996 224.87524414 693.29956055 C226.31710259 696.76133531 228.33294404 699.73039363 230.4375 702.8125 C230.87562012 703.4619458 231.31374023 704.1113916 231.76513672 704.78051758 C235.48580992 710.28250423 239.25493052 715.75172507 243.02636719 721.21899414 C247.08293478 727.10303248 251.05257106 733.04223095 255 739 C256.33272904 741.00040273 257.666069 743.00039858 259 745 C264.33333333 753 269.66666667 761 275 769 C275.66902344 770.00289062 276.33804688 771.00578125 277.02734375 772.0390625 C278.27196886 773.90723246 279.5144515 775.77683322 280.75390625 777.6484375 C285.35577335 784.58602548 290.01570152 791.48436521 294.6875 798.375 C295.65055054 799.80271729 295.65055054 799.80271729 296.63305664 801.25927734 C303.24521333 810.98804123 308.8152324 818.82695691 321.0390625 821.43505859 C331.6920816 823.05480172 339.16495542 820.79184197 347.86791992 814.62402344 C349.25292229 813.59982545 350.62978273 812.56452057 351.99804688 811.51806641 C353.91775415 810.06236643 355.87093359 808.68400676 357.859375 807.32421875 C373.82127615 796.3766267 380.86257436 786.97041944 386.32421875 768.53125 C388.1850929 762.32377521 390.18928143 756.16434023 392.1875 750 C395.26757931 740.45542392 398.30057967 730.89829493 401.25 721.3125 C401.55446045 720.32443359 401.8589209 719.33636719 402.17260742 718.31835938 C404.02959358 712.25824601 405.83481906 706.18381788 407.62011719 700.10229492 C407.96482559 698.92912846 407.96482559 698.92912846 408.3164978 697.73226166 C408.87787826 695.82157036 409.43896899 693.91079394 410 692 C410.90802337 691.99940291 411.81604673 691.99880582 412.75158596 691.99819064 C466.59632498 691.96227852 520.4410082 691.90561159 574.28569549 691.82207905 C580.75426552 691.81206187 587.2228358 691.80221769 593.69140625 691.79248047 C595.62302917 691.78956841 595.62302917 691.78956841 597.59367478 691.78659752 C618.43094446 691.75559618 639.26820313 691.73860207 660.10549152 691.72680578 C681.49447486 691.71438457 702.88340053 691.68686121 724.27234745 691.64538693 C737.46511111 691.62027941 750.6577791 691.60688073 763.85056698 691.60857043 C772.90353232 691.60860024 781.95640036 691.59392976 791.00932777 691.56783572 C796.22845752 691.55322203 801.44738777 691.54495918 806.66653442 691.55419731 C811.45395185 691.56252751 816.24096967 691.5522114 821.02832806 691.52766338 C822.75133815 691.52201282 824.47438654 691.52294336 826.19738472 691.53148755 C847.92509794 691.62991857 866.77478409 686.20140256 883 671 C884.76064581 669.22187625 886.50181763 667.42590474 888.24267578 665.62841797 C888.84321777 665.00854004 889.44375977 664.38866211 890.0625 663.75 C890.66046387 663.1327002 891.25842773 662.51540039 891.87451172 661.87939453 C895.7953534 657.93270825 899.34587449 655.48458588 904.49609375 653.3125 C920.87594837 644.72649196 930.88690694 625.08060931 936.4375 608.1875 C939.7560149 597.39860626 939.14582621 585.7998366 939.13371277 574.6305542 C939.13558372 572.98595511 939.13788556 571.34135646 939.14057809 569.69675851 C939.14666724 565.2013375 939.14656592 560.70593516 939.14538372 556.21051097 C939.14517898 551.35283674 939.15070539 546.4951684 939.15544128 541.63749695 C939.16373238 532.12956878 939.16649542 522.62164681 939.16705366 513.11371532 C939.16752952 505.3824118 939.16958776 497.65111031 939.17275429 489.91980743 C939.18155639 467.98110714 939.18617432 446.04241174 939.18542381 424.10370967 C939.18538386 422.92205872 939.1853439 421.74040777 939.18530273 420.52294922 C939.18526185 419.3398491 939.18522097 418.15674898 939.18517885 416.93779734 C939.18477243 397.76567097 939.19434213 378.59356424 939.2084411 359.42144355 C939.22281676 339.71699525 939.22971064 320.01255652 939.22884732 300.30810285 C939.22851578 289.25302885 939.23124413 278.19797545 939.24202538 267.14290619 C939.251146 257.73063792 939.25329277 248.31839958 939.24651595 238.90612879 C939.24325874 234.1083418 939.24316514 229.31061221 939.2518692 224.51283073 C939.25977044 220.11214403 939.25826605 215.71155988 939.24958507 211.31087556 C939.24805803 209.72750201 939.24983584 208.14412065 939.25544515 206.5607563 C939.30516418 191.51786848 938.22788182 177.92226792 932 164 C931.69191406 163.27425781 931.38382813 162.54851562 931.06640625 161.80078125 C921.85289662 141.61295792 904.05598249 128.3134534 883.98046875 120.34765625 C880.36717301 119.01190638 876.82642516 118.46544224 873 118 C872.67 117.67 872.34 117.34 872 117 C870.49124438 116.90052699 868.97783107 116.87098817 867.4658013 116.8688975 C865.98361151 116.86322053 865.98361151 116.86322053 864.47147849 116.85742888 C863.37064806 116.85834081 862.26981763 116.85925274 861.1356287 116.8601923 C859.39198771 116.85576516 859.39198771 116.85576516 857.61312166 116.85124859 C854.35752836 116.844029 851.10196628 116.84134899 847.84636618 116.84052564 C844.31524542 116.83856361 840.78413646 116.83089105 837.25302261 116.82395309 C830.23599416 116.81110483 823.21896941 116.80374497 816.20193191 116.79805431 C807.80170972 116.79100965 799.40149861 116.77825085 791.00128348 116.76550511 C769.72345201 116.73360762 748.44561317 116.71380804 727.16776577 116.69621959 C721.40423857 116.6914534 715.6407116 116.68644441 709.87718463 116.68141437 C674.10641054 116.65036203 638.33563461 116.6237408 602.56485081 116.60699558 C594.2719936 116.60305826 585.97913643 116.59904644 577.6862793 116.5949707 C576.65597955 116.59446904 575.62567979 116.59396737 574.56415884 116.5934505 C541.18187109 116.57704336 507.79965679 116.53860537 474.41740515 116.4876836 C440.10318141 116.43543566 405.78899676 116.40267685 371.47473244 116.39541805 C366.6253611 116.39438947 361.77598984 116.39315316 356.92661858 116.39179802 C355.97222171 116.39153998 355.01782484 116.39128194 354.03450686 116.39101609 C338.6874572 116.38632475 323.34050436 116.36140418 307.99349091 116.32904659 C292.55569609 116.29697325 277.11801003 116.28705446 261.68018586 116.29947854 C252.51451474 116.30620375 243.34921786 116.29634665 234.1836054 116.26235154 C228.05110185 116.24127199 221.91885035 116.24224537 215.78633914 116.26068495 C212.29830045 116.27055854 208.81097215 116.27130311 205.32300252 116.24502213 C190.15380459 116.15144968 176.96659028 116.74152132 163 123 Z " fill="#000000" transform="translate(0,0)"/>
<path d="M0 0 C8.44029129 6.48716603 16.35462133 16.13764903 18.1875 26.88671875 C19.58053622 42.14481855 18.34579428 53.50266914 8.69921875 65.984375 C1.26369313 74.6655759 -6.65605104 80.68568233 -17.875 83.4375 C-32.74212759 84.19345564 -43.11714382 83.13913725 -55.5625 74.625 C-56.201875 74.19574219 -56.84125 73.76648438 -57.5 73.32421875 C-66.58450659 66.45000506 -71.44742226 54.51142953 -73.5625 43.625 C-74.89479608 31.72231706 -72.78138201 21.24433849 -65.8125 11.375 C-64.75888239 10.09985254 -63.67292844 8.85099339 -62.5625 7.625 C-61.86898437 6.8515625 -61.17546875 6.078125 -60.4609375 5.28125 C-55.91805351 0.47297416 -51.77299752 -3.05485187 -45.5625 -5.375 C-44.47582031 -5.81972656 -44.47582031 -5.81972656 -43.3671875 -6.2734375 C-28.68839799 -11.55392613 -12.78886347 -8.4812373 0 0 Z " fill="#E9E9EA" transform="translate(742.5625,366.375)"/>
<path d="M0 0 C0.97646484 0.34804688 0.97646484 0.34804688 1.97265625 0.703125 C6.75706785 2.70727278 10.43509991 5.92391872 14.25 9.375 C14.75772949 9.83326172 15.26545898 10.29152344 15.78857422 10.76367188 C20.09637738 14.80232634 23.50158608 19.24099152 25.6875 24.75 C26.4035654 26.52311432 27.14481768 28.28963535 28 30 C28.24028556 33.20246134 28.18520352 36.41452388 28.1875 39.625 C28.19974609 40.50285156 28.21199219 41.38070312 28.22460938 42.28515625 C28.25410989 55.52105431 23.77491058 67.08211457 14.59375 76.70703125 C5.75394486 84.5217385 -4.92419879 89.60004077 -16.75 89.4375 C-17.92852539 89.42505249 -17.92852539 89.42505249 -19.13085938 89.41235352 C-32.61840485 89.02435185 -43.05529757 83.4224788 -52.3125 73.75 C-56.34392238 68.98559174 -58.81129761 63.81108969 -61 58 C-61.54140625 56.65615234 -61.54140625 56.65615234 -62.09375 55.28515625 C-65.33378288 43.54003706 -64.26940875 30.85428274 -58.41308594 20.21240234 C-51.69632486 9.02266353 -41.99090093 2.69746634 -30 -2 C-20.06263388 -4.39232888 -9.47324519 -3.74332739 0 0 Z " fill="#EDEDEE" transform="translate(527,361)"/>
<path d="M0 0 C8.6821855 6.86718885 16.17742233 16.71469687 17.50390625 27.98046875 C18.31874156 42.45679822 16.45934653 55.47038363 7.2578125 67.0703125 C-0.38227814 75.39103482 -12.09576225 82.62387333 -23.5625 83.3515625 C-34.79214174 83.6527454 -43.8989763 82.37854705 -53.49609375 75.98046875 C-53.49609375 75.32046875 -53.49609375 74.66046875 -53.49609375 73.98046875 C-54.34880859 73.86832031 -54.34880859 73.86832031 -55.21875 73.75390625 C-61.00993379 71.78708911 -65.27374873 65.12098077 -68.19140625 60.01171875 C-70.21755422 55.70470707 -71.49609375 52.7958681 -71.49609375 47.98046875 C-72.15609375 47.98046875 -72.81609375 47.98046875 -73.49609375 47.98046875 C-75.36133454 36.3101108 -75.39131705 23.52296966 -68.80859375 13.35546875 C-67.41722869 11.52774367 -65.98291009 9.73142645 -64.49609375 7.98046875 C-63.93664062 7.30628906 -63.3771875 6.63210938 -62.80078125 5.9375 C-46.01067896 -12.43427859 -20.10810041 -13.72736404 0 0 Z " fill="#EDEDEE" transform="translate(332.49609375,367.01953125)"/>
<path d="M0 0 C2.01629359 0.74662242 2.01629359 0.74662242 4.61328125 0.88671875 C8.62958922 2.18930512 10.78017266 5.09801936 12.92578125 8.63671875 C13.91087535 11.38762467 14.61898728 14.09951779 15.26171875 16.94921875 C15.86231007 19.37984716 16.66281991 21.3297777 17.73828125 23.57421875 C19.87713977 28.85521479 18.16652503 34.28099022 16.92578125 39.63671875 C16.26578125 39.63671875 15.60578125 39.63671875 14.92578125 39.63671875 C14.92578125 36.99671875 14.92578125 34.35671875 14.92578125 31.63671875 C11.65833969 32.37613012 11.65833969 32.37613012 10.05078125 35.57421875 C7.67442508 38.99896735 6.92962065 39.76631888 2.92578125 40.63671875 C-5.2509626 41.42570281 -12.2778557 40.19345305 -19.13671875 35.57421875 C-19.77609375 34.93484375 -20.41546875 34.29546875 -21.07421875 33.63671875 C-21.07421875 32.97671875 -21.07421875 32.31671875 -21.07421875 31.63671875 C-21.6671875 31.42015625 -22.26015625 31.20359375 -22.87109375 30.98046875 C-27.46661907 28.17752423 -29.25859741 22.50775465 -31.07421875 17.63671875 C-32.20138773 11.24341627 -31.03921233 6.31962312 -28.07421875 0.63671875 C-27.41421875 0.63671875 -26.75421875 0.63671875 -26.07421875 0.63671875 C-26.07421875 -0.02328125 -26.07421875 -0.68328125 -26.07421875 -1.36328125 C-16.9046705 -5.8615502 -9.23841091 -3.3638974 0 0 Z " fill="#FCFCFC" transform="translate(740.07421875,368.36328125)"/>
<path d="M0 0 C0.625 1.8125 0.625 1.8125 1 4 C0.01 5.485 0.01 5.485 -1 7 C-1.66 7 -2.32 7 -3 7 C-2.93941406 7.98742187 -2.87882812 8.97484375 -2.81640625 9.9921875 C-2.81752955 14.45618687 -4.25202576 18.04437815 -5.9375 22.125 C-9.12910743 30.04848016 -11.08840293 37.13689851 -9.49886596 45.69955146 C-8.97311981 49.1778367 -8.87949811 52.45007697 -8.88533211 55.96733284 C-8.88507705 56.6476986 -8.884822 57.32806435 -8.88455921 58.02904725 C-8.88491978 60.30749225 -8.89245137 62.58585642 -8.89993286 64.86428833 C-8.90164528 66.5149589 -8.90290737 68.16562999 -8.90375793 69.81630123 C-8.90734506 74.35162331 -8.91714817 78.8869141 -8.92791152 83.42222404 C-8.93839582 88.3140048 -8.94302617 93.20579124 -8.94824219 98.09757996 C-8.95795443 106.5754468 -8.97099665 115.05330317 -8.98596573 123.53116226 C-9.0093393 136.93490336 -9.02234005 150.33864521 -9.03366089 163.74240112 C-9.03766238 168.32908063 -9.04173108 172.91576007 -9.04582024 177.5024395 C-9.04683946 178.64871261 -9.04785869 179.79498572 -9.04890881 180.97599439 C-9.06065145 194.02371171 -9.07452971 207.07142646 -9.08935547 220.11914062 C-9.0907079 221.31183641 -9.09206033 222.5045322 -9.09345375 223.73337029 C-9.11562913 243.05657332 -9.14549837 262.37975892 -9.17732288 281.70294811 C-9.20972405 301.546209 -9.23058447 321.38946078 -9.24159515 341.23274505 C-9.24881519 353.46933436 -9.26550476 365.70583747 -9.29439591 377.94239514 C-9.31340991 386.33131739 -9.3214808 394.72020532 -9.32099093 403.10914893 C-9.32105389 407.94706931 -9.32599827 412.78485446 -9.34415817 417.62274361 C-9.36070435 422.05681008 -9.36323772 426.49066164 -9.35490941 430.92474912 C-9.35433814 432.52370275 -9.35879859 434.12266833 -9.36897077 435.7215897 C-9.42284959 444.67557544 -9.32024871 453.53971252 -6 462 C-5.34 462.33 -4.68 462.66 -4 463 C-2.7109375 464.92578125 -2.7109375 464.92578125 -1.375 467.3125 C-0.92898437 468.09238281 -0.48296875 468.87226562 -0.0234375 469.67578125 C1 472 1 472 1 476 C1.66 476.33 2.32 476.66 3 477 C3.625 479.0625 3.625 479.0625 4 481 C4.66 481 5.32 481 6 481 C6.33 482.65 6.66 484.3 7 486 C2.11713945 481.69159363 -0.8512992 476.66068371 -4 471 C-4.37253906 470.33871094 -4.74507812 469.67742187 -5.12890625 468.99609375 C-13.08186858 454.05699981 -13.15157658 438.95943185 -13.13371277 422.4209137 C-13.13558417 420.76577657 -13.13788618 419.11063988 -13.14057809 417.45550388 C-13.14666153 412.93567787 -13.1465666 408.41587044 -13.14538372 403.89604127 C-13.14517884 399.01047444 -13.15070666 394.12491345 -13.15544128 389.23934937 C-13.16372873 379.67942347 -13.16649524 370.11950374 -13.16705366 360.55957455 C-13.1675296 352.78727852 -13.16958822 345.01498452 -13.17275429 337.24268913 C-13.18155461 315.18909062 -13.18617448 293.13549696 -13.18542381 271.08189667 C-13.18538386 269.89431169 -13.1853439 268.7067267 -13.18530273 267.4831543 C-13.18526185 266.29411383 -13.18522097 265.10507336 -13.18517885 263.88000136 C-13.18477226 244.60312306 -13.19434679 225.32626428 -13.2084411 206.04939163 C-13.22281107 186.23870018 -13.22971099 166.42801823 -13.22884732 146.61732143 C-13.22851564 135.50196345 -13.23125062 124.38662594 -13.24202538 113.27127266 C-13.2511384 103.80993043 -13.25329891 94.34861798 -13.24651595 84.88727326 C-13.2432552 80.06339877 -13.24317809 75.23958138 -13.2518692 70.41571236 C-13.25975441 65.99358206 -13.25828221 61.57155396 -13.24958507 57.1494261 C-13.24805456 55.55602387 -13.24984917 53.96261394 -13.25544515 52.3692208 C-13.31847814 33.1362872 -10.53291342 16.42069368 0 0 Z " fill="#40528D" transform="translate(98,177)"/>
<path d="M0 0 C1.17444353 -0.00260729 2.34888706 -0.00521457 3.55891979 -0.00790086 C6.82017003 -0.0131138 10.08126834 -0.00936423 13.34250954 -0.00184478 C16.88989062 0.00412997 20.43725634 -0.00150524 23.98463738 -0.0056656 C30.20218596 -0.01135188 36.41969803 -0.00959787 42.63724518 -0.00298023 C51.88256281 0.00683294 61.12785369 0.00520621 70.37317442 0.00126947 C85.92538299 -0.00500798 101.4775764 -0.00183155 117.02978325 0.00686359 C132.43079837 0.01547249 147.83180669 0.02038388 163.23282433 0.02019596 C164.19016365 0.02018832 165.14750297 0.02018067 166.13385258 0.02017279 C170.01974271 0.02013189 173.90563284 0.02006628 177.79152297 0.01996698 C214.25227461 0.01906067 250.71301585 0.02901002 287.17376388 0.04439665 C319.59313966 0.05802731 352.01250806 0.06425767 384.43188667 0.06358624 C386.51432049 0.06354582 388.5967543 0.06350546 390.67918812 0.06346516 C391.70868753 0.0634448 392.73818694 0.06342445 393.7988833 0.06340349 C398.98084631 0.0633027 404.16280933 0.06321211 409.34477234 0.06313324 C410.36701477 0.06311653 411.3892572 0.06309981 412.44247668 0.06308259 C439.50788077 0.06271779 466.57328394 0.06725202 493.63868725 0.0734598 C494.60087088 0.07368008 495.5630545 0.07390035 496.5543952 0.07412729 C500.42383097 0.07501556 504.29326674 0.07590394 508.1627025 0.07681825 C521.6461249 0.07998261 535.12954658 0.08148807 548.61296933 0.08192974 C565.98073984 0.08252573 583.34850426 0.08649833 600.71627216 0.0963612 C609.90984647 0.10149142 619.10341182 0.10388051 628.29698749 0.10236501 C634.42619622 0.10163403 640.55539619 0.10450833 646.68460211 0.11040882 C650.18438727 0.11367835 653.68415358 0.11532393 657.18393968 0.11264823 C660.94089934 0.11060675 664.69780294 0.11460473 668.45475769 0.12025452 C670.11071982 0.11717154 670.11071982 0.11717154 671.80013573 0.11402628 C672.79108073 0.11678602 673.78202574 0.11954577 674.80299938 0.12238914 C675.66353811 0.12268064 676.52407684 0.12297214 677.41069251 0.12327247 C679.34985542 0.24888897 679.34985542 0.24888897 680.34985542 1.24888897 C681.54610542 1.47576397 682.74235542 1.70263897 683.97485542 1.93638897 C691.07768887 3.42142222 697.68247349 6.45544041 704.34985542 9.24888897 C704.34985542 9.57888897 704.34985542 9.90888897 704.34985542 10.24888897 C702.03985542 10.24888897 699.72985542 10.24888897 697.34985542 10.24888897 C697.34985542 9.58888897 697.34985542 8.92888897 697.34985542 8.24888897 C685.88045936 4.78478204 674.52247001 4.00355109 662.60864449 4.23472881 C659.24562023 4.29445657 656.56761571 4.32147573 653.34985542 3.24888897 C651.86122146 3.15706302 650.36880099 3.12105281 648.87733847 3.11942911 C647.95403383 3.11600463 647.0307292 3.11258014 646.07944563 3.10905188 C644.55245144 3.11101466 644.55245144 3.11101466 642.99460888 3.11301708 C641.911515 3.11047446 640.82842111 3.10793184 639.7125062 3.10531217 C636.0459646 3.09793323 632.37945634 3.09771575 628.71290779 3.09739971 C626.07232415 3.09355258 623.43174388 3.08930883 620.79116195 3.08457422 C615.03044646 3.07504272 609.26973634 3.06921134 603.50901413 3.06576633 C594.9419002 3.06061996 586.37480023 3.04976993 577.80769362 3.0376869 C563.39279626 3.01749909 548.97789732 3.0018143 534.5629921 2.98852825 C514.8634173 2.97031178 495.16385445 2.9456025 475.46428918 2.91915435 C466.2879788 2.90684342 457.11166801 2.89485209 447.93535709 2.88294506 C447.01659007 2.88175254 446.09782305 2.88056001 445.1512146 2.87933135 C423.26845621 2.85100319 401.38569437 2.82581303 379.50293159 2.80113506 C378.06635158 2.79951327 378.06635158 2.79951327 376.60074974 2.79785871 C363.00989926 2.78251915 349.41904863 2.76731539 335.82819796 2.75214422 C319.35649446 2.7337552 302.88479105 2.7152886 286.41308784 2.69664288 C285.45846574 2.69556341 284.50384363 2.69448394 283.52029358 2.69337177 C261.71013945 2.66869261 239.89998684 2.64312771 218.08983707 2.61483288 C217.17208164 2.61364263 216.25432621 2.61245238 215.30876 2.61122606 C206.14369531 2.59931996 196.97863084 2.58726175 187.81356665 2.57497585 C168.14472704 2.54864391 148.47588942 2.52498898 128.80704049 2.50680245 C114.45607782 2.49349265 100.1051224 2.47682567 85.75416762 2.45670736 C77.23781211 2.44488577 68.72146391 2.43579283 60.20510169 2.43066139 C54.50291078 2.42695848 48.80073144 2.41966929 43.09854828 2.40957707 C39.85817186 2.40394439 36.61781703 2.40033201 33.37743516 2.4000482 C19.00194346 2.39780355 4.69944749 2.14098968 -9.65014458 1.24888897 C-9.65014458 1.90888897 -9.65014458 2.56888897 -9.65014458 3.24888897 C-12.62014458 3.24888897 -15.59014458 3.24888897 -18.65014458 3.24888897 C-18.65014458 2.91888897 -18.65014458 2.58888897 -18.65014458 2.24888897 C-12.39107205 0.02594269 -6.60136463 -0.03009077 0 0 Z " fill="#465496" transform="translate(192.65014457702637,116.75111103057861)"/>
<path d="M0 0 C7.05775498 6.24339863 10.82631617 14.31862271 14 23 C14.27714844 23.62132812 14.55429687 24.24265625 14.83984375 24.8828125 C19.90629022 36.52807752 19.29138612 50.41552941 19.24723816 62.87738037 C19.24883032 64.52828296 19.25129793 66.17918489 19.25455457 67.83008504 C19.26091251 72.32421841 19.25494346 76.81826042 19.24679029 81.3123877 C19.24016972 86.17536833 19.24517115 91.03833946 19.24867249 95.90132141 C19.25369685 105.41004487 19.24809538 114.91873336 19.23882218 124.42745247 C19.22840556 135.50939873 19.22850923 146.59133755 19.22899476 157.67328778 C19.22949465 177.44837759 19.22035293 197.22345119 19.20581055 216.99853516 C19.19171698 236.17334285 19.18464017 255.34813628 19.18530273 274.52294922 C19.18536267 276.29542564 19.18536267 276.29542564 19.18542381 278.10370967 C19.18546417 279.28334986 19.18550452 280.46299005 19.1855461 281.67837691 C19.18623642 303.53351031 19.18034415 325.38863766 19.17139288 347.24376909 C19.16838062 354.96327129 19.16731382 362.68277237 19.16686058 370.40227509 C19.16617752 379.81016473 19.1616998 389.21804418 19.15252777 398.6259295 C19.14792037 403.42323127 19.14486039 408.22052004 19.14612198 413.01782417 C19.1472218 417.41318405 19.14366952 421.80851524 19.13647345 426.20386913 C19.13466931 427.78974225 19.13452081 429.37561835 19.13624074 430.96149155 C19.15486884 450.28414978 19.15486884 450.28414978 18 456 C17.34 456.66 16.68 457.32 16 458 C15.17361624 455.10765685 15 453.11257569 15 450 C15.66 450 16.32 450 17 450 C16.83753786 448.83236728 16.67507572 447.66473456 16.50769049 446.46171904 C16.0144017 442.49620634 15.87572976 438.61223158 15.87695217 434.61249542 C15.87579833 433.91103146 15.87464448 433.20956749 15.87345567 432.48684704 C15.87081997 430.14879974 15.87528588 427.81082204 15.87974548 425.47277832 C15.87930916 423.77470556 15.87843312 422.07663287 15.87715632 420.37856054 C15.87492341 415.72198144 15.87891618 411.0654254 15.88393438 406.40884924 C15.88825597 401.38372137 15.88679124 396.35859478 15.8860321 391.33346558 C15.88550795 382.63025098 15.8886434 373.92704389 15.89426994 365.22383118 C15.90239967 352.64047189 15.90500168 340.05711622 15.90625793 327.47375458 C15.90844613 307.05769631 15.91509995 286.64164204 15.92456055 266.22558594 C15.93374065 246.39420593 15.94081856 226.56282701 15.94506836 206.73144531 C15.94533108 205.50887891 15.94559381 204.28631251 15.94586449 203.02669865 C15.94716954 196.89339452 15.94843324 190.76009038 15.94967639 184.62678623 C15.96004179 133.75118806 15.97765381 82.87559422 16 32 C15.34 32 14.68 32 14 32 C12.64560332 29.29120665 12.93498549 26.99066732 13 24 C11.02 24 9.04 24 7 24 C5.71428571 15.57142857 5.71428571 15.57142857 7 11 C6.38125 10.95875 5.7625 10.9175 5.125 10.875 C3 10 3 10 1.8125 7.1875 C1.544375 6.135625 1.27625 5.08375 1 4 C0.79375 3.21625 0.5875 2.4325 0.375 1.625 C0.25125 1.08875 0.1275 0.5525 0 0 Z " fill="#3F4F8A" transform="translate(920,146)"/>
<path d="M0 0 C0.33 0 0.66 0 1 0 C1.84179191 4.3804074 2.12206185 8.50959352 2.11466789 12.96733284 C2.11492295 13.6476986 2.115178 14.32806435 2.11544079 15.02904725 C2.11508022 17.30749225 2.10754863 19.58585642 2.10006714 21.86428833 C2.09835472 23.5149589 2.09709263 25.16562999 2.09624207 26.81630123 C2.09265494 31.35162331 2.08285183 35.8869141 2.07208848 40.42222404 C2.06160418 45.3140048 2.05697383 50.20579124 2.05175781 55.09757996 C2.04204557 63.5754468 2.02900335 72.05330317 2.01403427 80.53116226 C1.9906607 93.93490336 1.97765995 107.33864521 1.96633911 120.74240112 C1.96233762 125.32908063 1.95826892 129.91576007 1.95417976 134.5024395 C1.95316054 135.64871261 1.95214131 136.79498572 1.95109119 137.97599439 C1.93934855 151.02371171 1.92547029 164.07142646 1.91064453 177.11914062 C1.9092921 178.31183641 1.90793967 179.5045322 1.90654625 180.73337029 C1.88437087 200.05657332 1.85450163 219.37975892 1.82267712 238.70294811 C1.79027595 258.546209 1.76941553 278.38946078 1.75840485 298.23274505 C1.75118481 310.46933436 1.73449524 322.70583747 1.70560409 334.94239514 C1.68659009 343.33131739 1.6785192 351.72020532 1.67900907 360.10914893 C1.67894611 364.94706931 1.67400173 369.78485446 1.65584183 374.62274361 C1.63929565 379.05681008 1.63676228 383.49066164 1.64509059 387.92474912 C1.64566186 389.52370275 1.64120141 391.12266833 1.63102923 392.7215897 C1.57715041 401.67557544 1.67975129 410.53971252 5 419 C5.66 419.33 6.32 419.66 7 420 C8.2890625 421.92578125 8.2890625 421.92578125 9.625 424.3125 C10.07101563 425.09238281 10.51703125 425.87226562 10.9765625 426.67578125 C12 429 12 429 12 433 C12.66 433.33 13.32 433.66 14 434 C14.625 436.0625 14.625 436.0625 15 438 C15.66 438 16.32 438 17 438 C17.33 439.65 17.66 441.3 18 443 C13.11713945 438.69159363 10.1487008 433.66068371 7 428 C6.62746094 427.33871094 6.25492187 426.67742187 5.87109375 425.99609375 C-0.12461002 414.73357569 -1.58202187 404.06166403 -1.48774719 391.46992493 C-1.49021174 389.82018373 -1.494432 388.1704444 -1.50024194 386.5207116 C-1.51106637 382.01583474 -1.49712213 377.51133144 -1.47892153 373.00649107 C-1.46364502 368.13735843 -1.47158746 363.26825521 -1.47660828 358.39910889 C-1.48282202 348.87255297 -1.46787378 339.34614275 -1.44588266 329.81961481 C-1.42115109 318.72138129 -1.41827622 307.62317415 -1.41647889 296.52491715 C-1.4126055 276.72255301 -1.39015859 256.92025436 -1.35668945 237.11791992 C-1.32424975 217.90893276 -1.30300739 198.69998016 -1.29516602 179.4909668 C-1.29468052 178.30739687 -1.29419503 177.12382695 -1.29369483 175.90439127 C-1.29176604 171.14672705 -1.28985391 166.38906282 -1.28797873 161.63139858 C-1.28044352 143.31418067 -1.26481789 124.99696843 -1.24748212 106.67975748 C-1.24224935 101.14886342 -1.23731614 95.61796947 -1.2331202 90.08707452 C-1.22419382 78.45990844 -1.2123913 66.83275889 -1.19155417 55.20560733 C-1.18297032 50.39845003 -1.17587673 45.59130407 -1.17303848 40.78413963 C-1.17036318 36.3819761 -1.16305046 31.9798453 -1.15204801 27.57769492 C-1.14885374 25.9870586 -1.14730827 24.39641792 -1.1475983 22.80577842 C-1.14804447 15.14195028 -1.06895092 7.60259075 0 0 Z " fill="#4F5FA2" transform="translate(87,220)"/>
<path d="M0 0 C63.16603736 0.06108628 126.33207209 0.12463032 189.49809265 0.20132446 C190.43233447 0.20245809 191.36657629 0.20359171 192.32912847 0.20475969 C212.63063594 0.22940868 232.93214285 0.25450144 253.23364921 0.28005161 C263.18888778 0.29257793 273.14412648 0.30500615 283.09936523 0.31738281 C284.09005366 0.31861614 285.08074209 0.31984946 286.10145138 0.32112016 C318.23717723 0.36108045 350.37290588 0.39455718 382.50864233 0.42468691 C415.52053497 0.45567223 448.53241393 0.49316811 481.54428959 0.53890612 C486.20242555 0.54535692 490.86056161 0.55173297 495.51869774 0.55806351 C496.89393749 0.55993596 496.89393749 0.55993596 498.29695986 0.56184625 C513.08071153 0.58178251 527.8644617 0.59481512 542.64822277 0.60529328 C557.49551779 0.6159628 572.34279006 0.63384053 587.19006745 0.65916704 C596.0210393 0.67400938 604.85197632 0.68323417 613.68296076 0.68456683 C619.57328174 0.68599894 625.46356337 0.69459905 631.35386648 0.70915592 C634.71571954 0.71725515 638.07742968 0.72102945 641.43930153 0.71827881 C645.05180192 0.71580673 648.66406642 0.72543073 652.2765398 0.73828697 C653.33233979 0.73463729 654.38813978 0.73098761 655.4759337 0.72722733 C656.91157993 0.73611934 656.91157993 0.73611934 658.37622911 0.74519098 C659.61650904 0.7465948 659.61650904 0.7465948 660.88184514 0.74802699 C663 1 663 1 666 3 C665.43129012 2.99984402 664.86258025 2.99968804 664.27663674 2.99952733 C602.38064808 2.98258649 540.48465917 2.96688031 478.58866882 2.95765686 C477.66457128 2.9575188 476.74047374 2.95738075 475.78837324 2.95723851 C455.70683464 2.95424583 435.62529601 2.95147561 415.54375734 2.94893467 C405.69624512 2.9476873 395.84873291 2.94639075 386.0012207 2.94506836 C385.02125769 2.9449376 384.04129468 2.94480684 383.03163582 2.94467212 C351.24939678 2.94040827 319.46715951 2.9328951 287.68492155 2.92370278 C255.03351218 2.91427619 222.3821038 2.90811595 189.73069309 2.90608501 C185.12238963 2.90579684 180.51408616 2.9054712 175.9057827 2.90512276 C174.9987731 2.90505533 174.0917635 2.90498791 173.15726876 2.90491844 C158.53755865 2.90373521 143.91785157 2.89909308 129.2981427 2.89316797 C114.61213579 2.88728942 99.92613189 2.88502984 85.24012385 2.88649862 C76.50733416 2.8872611 67.77455548 2.88521457 59.04176777 2.87920246 C53.21435426 2.87546348 47.386948 2.87532863 41.559534 2.87816819 C38.23527058 2.87968354 34.91104507 2.87904326 31.58678106 2.87511682 C28.01124683 2.87113715 24.43576755 2.87324656 20.86023426 2.87695217 C19.82091872 2.87432516 18.78160318 2.87169814 17.71079323 2.86899152 C16.75923508 2.87123882 15.80767693 2.87348611 14.82728368 2.8758015 C14.00947727 2.87564552 13.19167085 2.87548954 12.34908243 2.87532884 C9.8182726 3.00964469 7.47513973 3.46815342 5 4 C2.17667321 4.28470522 -0.64732167 4.50171235 -3.4765625 4.71875 C-6.12234188 4.92456017 -6.12234188 4.92456017 -9 6 C-10.89470816 6.0685495 -12.7916834 6.08480372 -14.6875 6.0625 C-15.68136719 6.05347656 -16.67523438 6.04445313 -17.69921875 6.03515625 C-18.83810547 6.01775391 -18.83810547 6.01775391 -20 6 C-16.75090253 2.75090253 -13.49341285 2.06095563 -8.9375 1.875 C-5.95571412 1.875 -2.98043628 1.91319118 0 2 C0 1.34 0 0.68 0 0 Z " fill="#5664A5" transform="translate(183,118)"/>
<path d="M0 0 C0.97786644 -0.00170885 1.95573287 -0.0034177 2.96323162 -0.00517833 C6.23061362 -0.00846515 9.49778898 0.00251727 12.76515198 0.01345825 C15.11098221 0.01402254 17.4568128 0.01370546 19.80264282 0.01257324 C26.16569271 0.01199942 32.52866719 0.02375867 38.89169955 0.03772116 C44.86938757 0.04895653 50.84707569 0.05096793 56.82477225 0.0530249 C68.66168386 0.0573979 80.49856785 0.07069627 92.33546448 0.08963013 C103.8312313 0.10799916 115.32699062 0.12215066 126.82276917 0.13064575 C127.53183505 0.1311712 128.24090093 0.13169665 128.97145366 0.13223802 C132.52876813 0.13484816 136.08608265 0.13737556 139.64339721 0.13986182 C169.13655528 0.16058201 198.62968634 0.19594586 228.12281799 0.24050903 C228.12281799 0.57050903 228.12281799 0.90050903 228.12281799 1.24050903 C222.14602597 1.98512959 216.33546719 2.38503055 210.31658936 2.36749268 C209.05827859 2.36983266 209.05827859 2.36983266 207.7745474 2.37221992 C204.98851964 2.37618002 202.20254724 2.37305962 199.41651917 2.36990356 C197.40825875 2.37125993 195.39999859 2.37304119 193.39173889 2.37521362 C187.95101361 2.37976313 182.51030735 2.37800774 177.06958175 2.37483454 C171.35476746 2.37229427 165.63995474 2.37465347 159.92514038 2.3762207 C150.31760874 2.37803916 140.71008479 2.37564627 131.10255432 2.37088013 C120.04023308 2.36545518 108.97793032 2.36718858 97.91560954 2.37270653 C88.3865303 2.37726732 78.85745657 2.37787326 69.32837659 2.37526786 C63.65154392 2.37371914 57.97471989 2.37347207 52.2978878 2.37680435 C46.9470599 2.37972573 41.5962554 2.37763028 36.24542999 2.3719101 C34.29779156 2.37060437 32.3501511 2.37093861 30.4025135 2.37317276 C17.61149613 2.38647481 4.89201856 1.99355249 -7.87718201 1.24050903 C-7.87718201 1.90050903 -7.87718201 2.56050903 -7.87718201 3.24050903 C-10.84718201 3.24050903 -13.81718201 3.24050903 -16.87718201 3.24050903 C-16.87718201 2.91050903 -16.87718201 2.58050903 -16.87718201 2.24050903 C-11.1311288 0.27716686 -6.04564856 -0.03888898 0 0 Z " fill="#435191" transform="translate(190.87718200683594,116.75949096679688)"/>
<path d="M0 0 C0.66 0 1.32 0 2 0 C-0.9897772 15.44718218 -6.84221489 24.82030981 -19.8671875 33.890625 C-20.90101563 34.58671875 -21.93484375 35.2828125 -23 36 C-23.60360352 36.40927734 -24.20720703 36.81855469 -24.82910156 37.24023438 C-28.06280673 39.43096729 -31.31012169 41.59537851 -34.5859375 43.72265625 C-36.53586333 44.995917 -38.30592769 46.25418155 -40.1015625 47.74609375 C-46.16188921 52.63032966 -54.41063876 52.02155842 -61.80712891 51.34716797 C-67.91182872 50.38069245 -73.86144368 47.59386186 -77.81640625 42.796875 C-78.20699219 42.20390625 -78.59757812 41.6109375 -79 41 C-77.68 41.33 -76.36 41.66 -75 42 C-75 42.66 -75 43.32 -75 44 C-74.38511719 44.04898438 -73.77023437 44.09796875 -73.13671875 44.1484375 C-72.32847656 44.22320313 -71.52023437 44.29796875 -70.6875 44.375 C-69.88699219 44.44460938 -69.08648437 44.51421875 -68.26171875 44.5859375 C-66 45 -66 45 -63 47 C-63 47.99 -63 48.98 -63 50 C-50.55827313 49.34447906 -50.55827313 49.34447906 -40.1875 43.875 C-39.795625 43.25625 -39.40375 42.6375 -39 42 C-38.34 42 -37.68 42 -37 42 C-37 41.34 -37 40.68 -37 40 C-36.01 40 -35.02 40 -34 40 C-34 39.34 -34 38.68 -34 38 C-33.34 37.67 -32.68 37.34 -32 37 C-31.34786708 34.97536745 -31.34786708 34.97536745 -31 33 C-29.68 33 -28.36 33 -27 33 C-27 32.34 -27 31.68 -27 31 C-25.02 30.67 -23.04 30.34 -21 30 C-21 29.34 -21 28.68 -21 28 C-19.20963542 27.0234375 -17.41927083 26.046875 -15.62890625 25.0703125 C-13.83381685 24.08589976 -13.83381685 24.08589976 -13 22 C-12.34 22 -11.68 22 -11 22 C-10.938125 20.948125 -10.87625 19.89625 -10.8125 18.8125 C-9.86115946 14.34851748 -8.50850201 12.82391625 -5 10 C-4.34 10 -3.68 10 -3 10 C-2.814375 8.9171875 -2.814375 8.9171875 -2.625 7.8125 C-2.0095069 5.04278106 -1.11555626 2.6029646 0 0 Z " fill="#4A5890" transform="translate(383,770)"/>
<path d="M0 0 C73.92 0.33 147.84 0.66 224 1 C224 1.33 224 1.66 224 2 C222.35256538 2.00634791 222.35256538 2.00634791 220.67184925 2.01282406 C193.96542649 2.11595312 167.25903109 2.22469328 140.55265522 2.33933926 C127.63773314 2.39465053 114.72280831 2.44812912 101.80786133 2.49731445 C90.5530554 2.54018193 79.29826964 2.58646644 68.04349488 2.63687855 C62.08252898 2.66345878 56.12156702 2.6883114 50.16057777 2.70907402 C44.55217676 2.72866249 38.94381406 2.75281298 33.33544731 2.78049088 C31.2750938 2.78984958 29.21473189 2.7975291 27.15436554 2.80341911 C24.34471502 2.81170031 21.53515699 2.82598274 18.72554016 2.84178162 C17.49839207 2.84324878 17.49839207 2.84324878 16.24645311 2.84474558 C12.36755159 2.87285621 8.77495238 3.09979781 5 4 C2.17667321 4.28470522 -0.64732167 4.50171235 -3.4765625 4.71875 C-6.12234188 4.92456017 -6.12234188 4.92456017 -9 6 C-10.89470816 6.0685495 -12.7916834 6.08480372 -14.6875 6.0625 C-15.68136719 6.05347656 -16.67523438 6.04445313 -17.69921875 6.03515625 C-18.83810547 6.01775391 -18.83810547 6.01775391 -20 6 C-16.75090253 2.75090253 -13.49341285 2.06095563 -8.9375 1.875 C-5.95571412 1.875 -2.98043628 1.91319118 0 2 C0 1.34 0 0.68 0 0 Z " fill="#5260A0" transform="translate(183,118)"/>
<path d="M0 0 C0.66 0.33 1.32 0.66 2 1 C-4.42953218 15.44753702 -14.41124518 28.99739769 -29 36 C-29.99 36 -30.98 36 -32 36 C-30.66786942 32.4134946 -29.23083941 29.12317517 -27 26 C-26.01 26 -25.02 26 -24 26 C-23.34 25.67 -22.68 25.34 -22 25 C-21.67 24.01 -21.34 23.02 -21 22 C-17.88332834 19.14305098 -14.99415824 17.36942568 -11 16 C-10.67 13.36 -10.34 10.72 -10 8 C-8.35 8 -6.7 8 -5 8 C-4.34 6.68 -3.68 5.36 -3 4 C-2.34 4 -1.68 4 -1 4 C-0.67 2.68 -0.34 1.36 0 0 Z " fill="#405391" transform="translate(929,620)"/>
<path d="M0 0 C0.66 0.33 1.32 0.66 2 1 C0.8125 3.5 0.8125 3.5 -1 6 C-3.6875 6.3125 -3.6875 6.3125 -6 6 C-6.0825 6.598125 -6.165 7.19625 -6.25 7.8125 C-7.21576779 10.62932273 -8.48868567 11.47799132 -11 13 C-11.66 13 -12.32 13 -13 13 C-13.25265625 13.58910156 -13.5053125 14.17820313 -13.765625 14.78515625 C-15.14471626 17.25966493 -16.58637595 18.62190075 -18.75 20.4375 C-19.81347656 21.3346875 -19.81347656 21.3346875 -20.8984375 22.25 C-21.59195313 22.8275 -22.28546875 23.405 -23 24 C-23.59039062 24.515625 -24.18078125 25.03125 -24.7890625 25.5625 C-28.75390625 29 -28.75390625 29 -31 29 C-31.33 29.66 -31.66 30.32 -32 31 C-33.32 30.67 -34.64 30.34 -36 30 C-31.03738207 23.69613399 -25.27734597 18.96030063 -19 14 C-18.13632813 13.29359375 -17.27265625 12.5871875 -16.3828125 11.859375 C-11.12163393 7.56520433 -5.72612754 3.65144365 0 0 Z " fill="#505FA0" transform="translate(150,129)"/>
<path d="M0 0 C35.97 0 71.94 0 109 0 C109 0.33 109 0.66 109 1 C59.005 1.495 59.005 1.495 8 2 C6.35 7.61 4.7 13.22 3 19 C2.34 20.98 1.68 22.96 1 25 C0.67 25 0.34 25 0 25 C-0.49551143 19.30161861 0.77811776 15.5821491 3.22265625 10.4296875 C4.14167032 7.55719128 3.81110484 5.86692404 3 3 C2.01 2.67 1.02 2.34 0 2 C0 1.34 0 0.68 0 0 Z " fill="#5E67A8" transform="translate(402,690)"/>
<path d="M0 0 C0.99 0.33 1.98 0.66 3 1 C1.84212169 8.27533541 -2.30065106 11.92323911 -7.5 16.875 C-8.67755859 18.03128906 -8.67755859 18.03128906 -9.87890625 19.2109375 C-16.82309772 25.97646195 -16.82309772 25.97646195 -21.125 26.0625 C-22.07375 26.041875 -23.0225 26.02125 -24 26 C-24.33 27.32 -24.66 28.64 -25 30 C-26.32 29.67 -27.64 29.34 -29 29 C-24.25 23.125 -24.25 23.125 -22 22 C-20.86649466 19.98330173 -20.86649466 19.98330173 -20 18 C-19.01 18.33 -18.02 18.66 -17 19 C-14.37156116 17.99500868 -13.27596315 17.55192629 -12 15 C-11.34 15 -10.68 15 -10 15 C-9.7525 14.401875 -9.505 13.80375 -9.25 13.1875 C-8 11 -8 11 -5.875 9.4375 C-5.25625 8.963125 -4.6375 8.48875 -4 8 C-4 7.01 -4 6.02 -4 5 C-3.01 4.67 -2.02 4.34 -1 4 C-0.26676204 1.98491642 -0.26676204 1.98491642 0 0 Z " fill="#7E87BD" transform="translate(896,649)"/>
<path d="M0 0 C0.82757813 0.14308594 1.65515625 0.28617188 2.5078125 0.43359375 C6.28855588 1.04680157 10.0776737 1.56575673 13.875 2.0625 C14.56335938 2.15337891 15.25171875 2.24425781 15.9609375 2.33789062 C17.64050563 2.55950031 19.32023621 2.77987828 21 3 C21 3.66 21 4.32 21 5 C42.12 5 63.24 5 85 5 C85 4.34 85 3.68 85 3 C85.66 3 86.32 3 87 3 C87 3.66 87 4.32 87 5 C87.66 5 88.32 5 89 5 C89.495 7.97 89.495 7.97 90 11 C88.5 9.625 88.5 9.625 87 8 C87 7.34 87 6.68 87 6 C86.17109253 6.00888245 85.34218506 6.01776489 84.48815918 6.0269165 C76.60534784 6.10768357 68.72267915 6.16827581 60.8395462 6.20724869 C56.78851911 6.2279599 52.73783913 6.25596827 48.68701172 6.30175781 C44.76417219 6.34581371 40.84166254 6.36926019 36.91859436 6.37950897 C35.4357434 6.38679496 33.95290666 6.40101572 32.47019958 6.42292023 C21.86109172 6.57315236 12.09627477 5.4303555 2 2 C1.34 1.34 0.68 0.68 0 0 Z " fill="#5A64A2" transform="translate(137,685)"/>
<path d="M0 0 C2.73824599 2.73824599 2.90458437 5.69902693 3.5625 9.375 C4.51290105 15.25663779 4.51290105 15.25663779 6 21 C6.66 21.33 7.32 21.66 8 22 C9.2890625 23.92578125 9.2890625 23.92578125 10.625 26.3125 C11.07101563 27.09238281 11.51703125 27.87226562 11.9765625 28.67578125 C13 31 13 31 13 35 C13.66 35.33 14.32 35.66 15 36 C15.625 38.0625 15.625 38.0625 16 40 C16.66 40 17.32 40 18 40 C18.33 41.65 18.66 43.3 19 45 C14.11713945 40.69159363 11.1487008 35.66068371 8 30 C7.44119141 29.00806641 7.44119141 29.00806641 6.87109375 27.99609375 C2.12255093 19.07628193 -0.80914948 10.15932123 0 0 Z " fill="#404E84" transform="translate(86,618)"/>
<path d="M0 0 C0.66 0 1.32 0 2 0 C-0.16623354 11.19220663 -3.27744173 20.18368155 -12 28 C-12.66 28 -13.32 28 -14 28 C-14 27.34 -14 26.68 -14 26 C-13.34 26 -12.68 26 -12 26 C-11.7834375 24.6696875 -11.7834375 24.6696875 -11.5625 23.3125 C-11.376875 22.219375 -11.19125 21.12625 -11 20 C-10.9175 19.154375 -10.835 18.30875 -10.75 17.4375 C-9.6895296 13.99097121 -7.70345131 12.30782429 -5 10 C-4.34 10 -3.68 10 -3 10 C-2.87625 9.278125 -2.7525 8.55625 -2.625 7.8125 C-2.0095069 5.04278106 -1.11555626 2.6029646 0 0 Z " fill="#3F528E" transform="translate(383,770)"/>
<path d="M0 0 C0.99 0.33 1.98 0.66 3 1 C2.855625 2.09957031 2.71125 3.19914062 2.5625 4.33203125 C1.51328775 12.59200616 0.6755511 20.65445339 1 29 C1.66 29 2.32 29 3 29 C3.33 31.64 3.66 34.28 4 37 C2.35 36.67 0.7 36.34 -1 36 C-1.02505615 35.14245117 -1.0501123 34.28490234 -1.07592773 33.40136719 C-1.17123412 30.2106563 -1.27045751 27.02009781 -1.37231445 23.82958984 C-1.4155455 22.45040622 -1.45722866 21.07117315 -1.49731445 19.69189453 C-1.55530403 17.70593062 -1.61937723 15.72014731 -1.68359375 13.734375 C-1.72025146 12.54038086 -1.75690918 11.34638672 -1.79467773 10.11621094 C-1.89346303 7.10572152 -1.89346303 7.10572152 -2.60961914 4.68847656 C-2.73844482 4.1312793 -2.86727051 3.57408203 -3 3 C-1.5625 1.25 -1.5625 1.25 0 0 Z " fill="#52619C" transform="translate(258,386)"/>
<path d="M0 0 C0.99 0.33 1.98 0.66 3 1 C2.2575 1.66 1.515 2.32 0.75 3 C-1.47724789 5.18369835 -2.64688574 7.20579945 -3.875 10.0625 C-5.98802057 14.62489952 -8.43612227 16.00848972 -13 18 C-13.99 18 -14.98 18 -16 18 C-14.66786942 14.4134946 -13.23083941 11.12317517 -11 8 C-10.01 8 -9.02 8 -8 8 C-7.34 7.67 -6.68 7.34 -6 7 C-5.67 6.01 -5.34 5.02 -5 4 C-2.625 1.75 -2.625 1.75 0 0 Z " fill="#4A5A98" transform="translate(913,638)"/>
<path d="M0 0 C0.99 0 1.98 0 3 0 C3 0.66 3 1.32 3 2 C3.99 2.33 4.98 2.66 6 3 C6.02469081 7.3782512 6.04285557 11.75646567 6.05493164 16.13476562 C6.05996514 17.62468166 6.06679242 19.11459274 6.07543945 20.60449219 C6.08754805 22.74415304 6.09323807 24.88374868 6.09765625 27.0234375 C6.10289307 28.31169434 6.10812988 29.59995117 6.11352539 30.92724609 C6 34 6 34 5 36 C4.01 36 3.02 36 2 36 C1.67 37.32 1.34 38.64 1 40 C0.67 39.34 0.34 38.68 0 38 C0.65061095 36.32700041 1.32033324 34.66140763 2 33 C3.16516471 27.65829418 3.21815533 22.37895844 3.25 16.9375 C3.270625 16.05255859 3.29125 15.16761719 3.3125 14.25585938 C3.34256708 9.24593244 3.08140531 6.15989716 0 2 C0 1.34 0 0.68 0 0 Z " fill="#747CAF" transform="translate(551,384)"/>
<path d="M0 0 C-1 3 -1 3 -3.01171875 4.28125 C-21.24367674 12.58544109 -21.24367674 12.58544109 -29 10 C-28.67 9.34 -28.34 8.68 -28 8 C-25.890625 7.40234375 -25.890625 7.40234375 -23.25 6.9375 C-21.95835937 6.70353516 -21.95835937 6.70353516 -20.640625 6.46484375 C-19.76921875 6.31144531 -18.8978125 6.15804687 -18 6 C-16.33254087 5.67065379 -14.66562162 5.33851662 -13 5 C-13 4.34 -13 3.68 -13 3 C-4.57142857 -0.42857143 -4.57142857 -0.42857143 0 0 Z " fill="#505C99" transform="translate(868,680)"/>
<path d="M0 0 C0.33 0 0.66 0 1 0 C2.07483628 5.22913428 2.12930634 10.24506799 2.09765625 15.5546875 C2.09553383 16.90700974 2.09553383 16.90700974 2.09336853 18.28665161 C2.0877974 21.149469 2.07525026 24.01220648 2.0625 26.875 C2.05748127 28.82291553 2.05291901 30.7708323 2.04882812 32.71875 C2.03783742 37.47919718 2.02059277 42.23958507 2 47 C-0.88610699 44.11389301 -0.37323594 41.12017496 -0.44921875 37.24609375 C-0.47095657 36.47121109 -0.4926944 35.69632843 -0.51509094 34.89796448 C-0.55906288 33.2529762 -0.59825016 31.60785421 -0.63305664 29.96264648 C-0.68676963 27.47137541 -0.75714727 24.98100855 -0.83007812 22.49023438 C-0.87079686 20.88804606 -0.91054007 19.28583261 -0.94921875 17.68359375 C-0.96997971 16.94886337 -0.99074066 16.214133 -1.01213074 15.45713806 C-1.11222524 10.22078042 -0.66071316 5.19626374 0 0 Z " fill="#5261A4" transform="translate(87,220)"/>
<path d="M0 0 C0.99 0 1.98 0 3 0 C0.78952972 9.48884805 -2.02395126 18.73072565 -5 28 C-5.33 28 -5.66 28 -6 28 C-6.08097324 25.72975032 -6.13917704 23.45867925 -6.1875 21.1875 C-6.22230469 19.92292969 -6.25710938 18.65835938 -6.29296875 17.35546875 C-6 14 -6 14 -4.53125 12.28125 C-4.0259375 11.8584375 -3.520625 11.435625 -3 11 C-2.26958147 7.38976901 -2.26958147 7.38976901 -2 4 C-1.34 4 -0.68 4 0 4 C0 2.68 0 1.36 0 0 Z " fill="#405187" transform="translate(399,716)"/>
<path d="M0 0 C0.33 0 0.66 0 1 0 C1.05869332 3.49992803 1.09382709 6.9997272 1.125 10.5 C1.14175781 11.48226563 1.15851563 12.46453125 1.17578125 13.4765625 C1.21499874 19.35918665 0.70432638 24.36364503 -1 30 C-1.99 30 -2.98 30 -4 30 C-4.268125 30.78375 -4.53625 31.5675 -4.8125 32.375 C-6 35 -6 35 -9 37 C-8.08467585 34.63541261 -7.14497699 32.30183734 -6.046875 30.015625 C-1.43655193 20.31330332 -0.63343954 10.63511649 0 0 Z " fill="#7D84B1" transform="translate(350,396)"/>
<path d="M0 0 C1.32 0.33 2.64 0.66 4 1 C3.67 1.99 3.34 2.98 3 4 C3.99 4 4.98 4 6 4 C6 4.66 6 5.32 6 6 C6.66 6 7.32 6 8 6 C10 9 10 9 10 12 C10.99 12.33 11.98 12.66 13 13 C15.04108797 16.00791911 15.19878036 18.42195344 15 22 C11.77736287 18.98643776 9.36623742 15.80320349 6.9375 12.125 C6.26589844 11.11695313 5.59429687 10.10890625 4.90234375 9.0703125 C3.07282585 6.11753823 1.50003788 3.13092018 0 0 Z " fill="#4A5691" transform="translate(233,705)"/>
<path d="M0 0 C5.69988839 5.04220896 10.12245447 10.87344785 10.875 18.5625 C10.94249832 20.04071315 10.99382154 21.52025949 11 23 C9.68 23.33 8.36 23.66 7 24 C5.71428571 15.57142857 5.71428571 15.57142857 7 11 C6.38125 10.95875 5.7625 10.9175 5.125 10.875 C3 10 3 10 1.8125 7.1875 C1.544375 6.135625 1.27625 5.08375 1 4 C0.79375 3.21625 0.5875 2.4325 0.375 1.625 C0.25125 1.08875 0.1275 0.5525 0 0 Z " fill="#5261A0" transform="translate(920,146)"/>
<path d="M0 0 C0.66 0.33 1.32 0.66 2 1 C0.8125 3.5 0.8125 3.5 -1 6 C-3.6875 6.3125 -3.6875 6.3125 -6 6 C-6.04125 6.5775 -6.0825 7.155 -6.125 7.75 C-7.482386 11.24042115 -9.78062874 12.23845723 -13 14 C-16.375 14.75 -16.375 14.75 -19 15 C-13.53716609 8.97204534 -6.73862768 4.49241845 0 0 Z " fill="#445491" transform="translate(150,129)"/>
<path d="M0 0 C3.09046522 1.54523261 3.36269298 4.01786055 4.5625 7.1875 C4.99691406 8.31542969 5.43132813 9.44335938 5.87890625 10.60546875 C7.96555789 16.92358819 8.13072289 22.79411466 8.0625 29.375 C8.05798828 30.20644531 8.05347656 31.03789062 8.04882812 31.89453125 C8.03713164 33.92971897 8.01919935 35.96486923 8 38 C7.67 38 7.34 38 7 38 C6.13190561 32.79826905 5.87484652 27.83021184 5.9375 22.5625 C5.94201172 21.83095703 5.94652344 21.09941406 5.95117188 20.34570312 C5.96281852 18.56376581 5.98074809 16.78187137 6 15 C5.34 15 4.68 15 4 15 C2.64560332 12.29120665 2.93498549 9.99066732 3 7 C2.34 7 1.68 7 1 7 C0.67 4.69 0.34 2.38 0 0 Z " fill="#3E4E87" transform="translate(930,163)"/>
<path d="M0 0 C2.36273811 2.12514434 3.56632006 3.88510171 4.625 6.875 C4.86476563 7.53242188 5.10453125 8.18984375 5.3515625 8.8671875 C6.98829845 14.25066839 7.12332257 19.2308596 7.0625 24.8125 C7.05798828 25.60076172 7.05347656 26.38902344 7.04882812 27.20117188 C7.03711312 29.13414761 7.01917998 31.06708393 7 33 C6.67 33 6.34 33 6 33 C5.93941406 32.10796875 5.87882813 31.2159375 5.81640625 30.296875 C5.73261719 29.12640625 5.64882813 27.9559375 5.5625 26.75 C5.48128906 25.58984375 5.40007813 24.4296875 5.31640625 23.234375 C4.7509749 17.45441013 2.75797196 12.33586324 0.83984375 6.875 C0 4 0 4 0 0 Z " fill="#D9DDE2" transform="translate(754,380)"/>
<path d="M0 0 C1.47906892 -0.02689216 2.95827483 -0.04634621 4.4375 -0.0625 C5.26121094 -0.07410156 6.08492187 -0.08570312 6.93359375 -0.09765625 C9 0 9 0 10 1 C11.794375 1.3403125 11.794375 1.3403125 13.625 1.6875 C20.72783344 3.17253325 27.33261807 6.20655144 34 9 C34 9.33 34 9.66 34 10 C31.69 10 29.38 10 27 10 C27 9.34 27 8.68 27 8 C26.23816406 7.81824219 25.47632813 7.63648437 24.69140625 7.44921875 C19.0194846 6.06841385 13.49261909 4.54661247 7.98046875 2.62890625 C5.35661436 1.79569016 2.72659083 1.34956293 0 1 C0 0.67 0 0.34 0 0 Z " fill="#38467D" transform="translate(863,117)"/>
<path d="M0 0 C0 3.72108445 -1.31911068 4.57691306 -3.703125 7.2421875 C-5.15559195 9.21089271 -5.81369538 10.99120569 -6.5625 13.3125 C-7.036875 14.529375 -7.51125 15.74625 -8 17 C-10.08984375 17.73046875 -10.08984375 17.73046875 -12 18 C-12 18.66 -12 19.32 -12 20 C-12.66 20 -13.32 20 -14 20 C-14.33 20.99 -14.66 21.98 -15 23 C-13.69288254 13.71611442 -6.79454845 6.05107202 0 0 Z " fill="#D1D6E5" transform="translate(275,368)"/>
<path d="M0 0 C2.97 0 5.94 0 9 0 C8.608125 1.155 8.21625 2.31 7.8125 3.5 C5.43156272 10.63136502 3.22887522 17.82002646 1 25 C0.67 25 0.34 25 0 25 C-0.49551143 19.30161861 0.77811776 15.5821491 3.22265625 10.4296875 C4.14167032 7.55719128 3.81110484 5.86692404 3 3 C2.01 2.67 1.02 2.34 0 2 C0 1.34 0 0.68 0 0 Z " fill="#3C4B7F" transform="translate(402,690)"/>
<path d="M0 0 C0.66 0 1.32 0 2 0 C2 0.66 2 1.32 2 2 C2.99 2 3.98 2 5 2 C5 2.66 5 3.32 5 4 C4.34 4 3.68 4 3 4 C3 4.66 3 5.32 3 6 C2.34 6 1.68 6 1 6 C1 6.66 1 7.32 1 8 C-0.65 8 -2.3 8 -4 8 C-4.33 9.32 -4.66 10.64 -5 12 C-6.32 11.67 -7.64 11.34 -9 11 C-4.25 5.125 -4.25 5.125 -2 4 C-0.86649466 1.98330173 -0.86649466 1.98330173 0 0 Z " fill="#8790C2" transform="translate(876,667)"/>
<path d="M0 0 C7.92 0 15.84 0 24 0 C21 3 21 3 18.73168945 3.34057617 C17.86761475 3.32486572 17.00354004 3.30915527 16.11328125 3.29296875 C15.17548828 3.28330078 14.23769531 3.27363281 13.27148438 3.26367188 C12.29501953 3.23853516 11.31855469 3.21339844 10.3125 3.1875 C9.32443359 3.17396484 8.33636719 3.16042969 7.31835938 3.14648438 C4.87835769 3.11112203 2.43945281 3.06177033 0 3 C0 2.01 0 1.02 0 0 Z " fill="#58639C" transform="translate(293,449)"/>
<path d="M0 0 C0.99 0 1.98 0 3 0 C4.421875 1.609375 4.421875 1.609375 5.75 3.75 C6.19859375 4.44609375 6.6471875 5.1421875 7.109375 5.859375 C8.16007332 8.38473764 7.93134261 9.47856025 7 12 C4.525 11.01 4.525 11.01 2 10 C2.33 9.01 2.66 8.02 3 7 C2.01 7 1.02 7 0 7 C0 4.69 0 2.38 0 0 Z " fill="#4F619D" transform="translate(262,426)"/>
<path d="M0 0 C0.66 0.33 1.32 0.66 2 1 C1.0936096 2.92154764 0.17443196 4.83706654 -0.75 6.75 C-1.26046875 7.81734375 -1.7709375 8.8846875 -2.296875 9.984375 C-3.92485639 12.86694755 -5.54844908 14.80426309 -8 17 C-8.63175608 11.81960013 -7.25817319 9.33121642 -4.2890625 5.3203125 C-3.86367188 4.88460937 -3.43828125 4.44890625 -3 4 C-2.34 4 -1.68 4 -1 4 C-0.67 2.68 -0.34 1.36 0 0 Z " fill="#44558F" transform="translate(929,620)"/>
<path d="M0 0 C1.32 0.33 2.64 0.66 4 1 C0 4 -4 7 -8 10 C-8.74765625 10.59167969 -9.4953125 11.18335938 -10.265625 11.79296875 C-12 13 -12 13 -14 13 C-13.67 12.01 -13.34 11.02 -13 10 C-12.34 9.690625 -11.68 9.38125 -11 9.0625 C-8.79394438 8.17972859 -8.79394438 8.17972859 -8.25 5.875 C-8.1675 5.25625 -8.085 4.6375 -8 4 C-4.535 3.505 -4.535 3.505 -1 3 C-0.67 2.01 -0.34 1.02 0 0 Z " fill="#3A4A81" transform="translate(365,798)"/>
<path d="M0 0 C1.2065625 0.0309375 1.2065625 0.0309375 2.4375 0.0625 C0.11533003 4.57783049 -2.54810245 7.07305501 -6.5625 10.0625 C-7.2225 10.0625 -7.8825 10.0625 -8.5625 10.0625 C-8.5625 8.7425 -8.5625 7.4225 -8.5625 6.0625 C-7.2425 5.7325 -5.9225 5.4025 -4.5625 5.0625 C-4.418125 4.423125 -4.27375 3.78375 -4.125 3.125 C-3.30589691 0.12162199 -3.19313651 0.07788138 0 0 Z " fill="#535F9E" transform="translate(324.5625,445.9375)"/>
<path d="M0 0 C3.34296065 3.66647297 4.3360126 6.13075903 5 11 C5.66 11.33 6.32 11.66 7 12 C7.625 14.0625 7.625 14.0625 8 16 C8.66 16 9.32 16 10 16 C10.33 17.65 10.66 19.3 11 21 C5.17291815 15.33040684 2.04763303 10.88556549 0 3 C0 2.01 0 1.02 0 0 Z " fill="#4C5A98" transform="translate(94,642)"/>
<path d="M0 0 C2.3125 0.1875 2.3125 0.1875 5 1 C6.6875 3.25 6.6875 3.25 8 6 C8.61875 7.2684375 8.61875 7.2684375 9.25 8.5625 C10.0829069 11.26944743 9.78310572 12.3542214 9 15 C7.87256334 13.25156882 6.7481458 11.5011906 5.625 9.75 C4.99851563 8.77546875 4.37203125 7.8009375 3.7265625 6.796875 C2.34865148 4.56478385 1.11687358 2.36912578 0 0 Z " fill="#4A5692" transform="translate(249,729)"/>
<path d="M0 0 C0.99 0.33 1.98 0.66 3 1 C1.79444959 7.14830711 0.08441876 9.35248219 -5 13 C-5 7.63636364 -5 7.63636364 -4 5 C-3.01 4.67 -2.02 4.34 -1 4 C-0.26676204 1.98491642 -0.26676204 1.98491642 0 0 Z " fill="#7681B8" transform="translate(896,649)"/>
<path d="M0 0 C1.32 0.33 2.64 0.66 4 1 C4 1.66 4 2.32 4 3 C4.61488281 3.04898438 5.22976563 3.09796875 5.86328125 3.1484375 C6.67152344 3.22320313 7.47976563 3.29796875 8.3125 3.375 C9.51326172 3.47941406 9.51326172 3.47941406 10.73828125 3.5859375 C13 4 13 4 16 6 C16 6.66 16 7.32 16 8 C10.34713483 8.86967156 7.30977969 6.59673164 2.85546875 3.5078125 C1 2 1 2 0 0 Z " fill="#4E5A96" transform="translate(304,811)"/>
<path d="M0 0 C0.33 0 0.66 0 1 0 C1 1.98 1 3.96 1 6 C1.66 6 2.32 6 3 6 C3.33 8.64 3.66 11.28 4 14 C2.35 13.67 0.7 13.34 -1 13 C-1.02708567 11.39592672 -1.04643483 9.7917215 -1.0625 8.1875 C-1.07410156 7.29417969 -1.08570313 6.40085937 -1.09765625 5.48046875 C-1 3 -1 3 0 0 Z " fill="#56649F" transform="translate(258,409)"/>
<path d="M0 0 C0.99 0 1.98 0 3 0 C3 0.66 3 1.32 3 2 C3.99 2.33 4.98 2.66 6 3 C5.67 10.26 5.34 17.52 5 25 C4.67 25 4.34 25 4 25 C3.96261719 23.75863281 3.92523437 22.51726562 3.88671875 21.23828125 C3.8210405 19.59632489 3.7545938 17.95439913 3.6875 16.3125 C3.65366211 15.08756836 3.65366211 15.08756836 3.61914062 13.83789062 C3.40502011 9.02991171 2.86998137 6.02412937 0 2 C0 1.34 0 0.68 0 0 Z " fill="#868EBD" transform="translate(551,384)"/>
<path d="M0 0 C0.99 0 1.98 0 3 0 C3 0.66 3 1.32 3 2 C5.475 2.99 5.475 2.99 8 4 C8 6.64 8 9.28 8 12 C4.02502456 8.59287819 2.13206212 4.67239145 0 0 Z " fill="#495690" transform="translate(272,763)"/>
<path d="M0 0 C0.82757813 0.14308594 1.65515625 0.28617188 2.5078125 0.43359375 C6.28855588 1.04680157 10.0776737 1.56575673 13.875 2.0625 C14.56335938 2.15337891 15.25171875 2.24425781 15.9609375 2.33789062 C17.64050563 2.55950031 19.32023621 2.77987828 21 3 C21 3.66 21 4.32 21 5 C21.66 5.33 22.32 5.66 23 6 C14.88861071 5.63379732 7.66964333 3.58459767 0 1 C0 0.67 0 0.34 0 0 Z " fill="#4C578B" transform="translate(137,685)"/>
<path d="M0 0 C1.33333333 0.66666667 2.66666667 1.33333333 4 2 C5.0828125 2.433125 5.0828125 2.433125 6.1875 2.875 C8 4 8 4 8.75 6.125 C8.87375 7.053125 8.87375 7.053125 9 8 C6.125 8.125 6.125 8.125 3 8 C0.4345406 5.4345406 0.45953913 3.52313332 0 0 Z " fill="#5766A0" transform="translate(271,437)"/>
<path d="M0 0 C1.45792884 -0.05399736 2.91642712 -0.09279177 4.375 -0.125 C5.18710937 -0.14820313 5.99921875 -0.17140625 6.8359375 -0.1953125 C9 0 9 0 11 2 C10 3 10 3 8.23413086 3.11352539 C7.48526611 3.10828857 6.73640137 3.10305176 5.96484375 3.09765625 C5.15595703 3.09443359 4.34707031 3.09121094 3.51367188 3.08789062 C2.66353516 3.07951172 1.81339844 3.07113281 0.9375 3.0625 C0.08349609 3.05798828 -0.77050781 3.05347656 -1.65039062 3.04882812 C-3.76695663 3.03700373 -5.88348685 3.01906769 -8 3 C-8 2.67 -8 2.34 -8 2 C-5.36 2 -2.72 2 0 2 C0 1.34 0 0.68 0 0 Z " fill="#D1D9E8" transform="translate(303,447)"/>
<path d="M0 0 C0.625 1.8125 0.625 1.8125 1 4 C0.01 5.485 0.01 5.485 -1 7 C-1.66 7 -2.32 7 -3 7 C-3.33 7.66 -3.66 8.32 -4 9 C-5.32 8.67 -6.64 8.34 -8 8 C-7.04578192 6.85073734 -6.08647955 5.70569459 -5.125 4.5625 C-4.59132813 3.92441406 -4.05765625 3.28632813 -3.5078125 2.62890625 C-2 1 -2 1 0 0 Z " fill="#455490" transform="translate(122,151)"/>
<path d="M0 0 C2.64 0 5.28 0 8 0 C7.67 1.32 7.34 2.64 7 4 C2.05 3.67 -2.9 3.34 -8 3 C-8 2.67 -8 2.34 -8 2 C-5.36 2 -2.72 2 0 2 C0 1.34 0 0.68 0 0 Z " fill="#6069A6" transform="translate(721,449)"/>
<path d="M0 0 C-2.739898 2.739898 -5.16819116 2.8900714 -8.9375 3.6875 C-10.18402344 3.95949219 -11.43054688 4.23148438 -12.71484375 4.51171875 C-16 5 -16 5 -19 4 C-18.67 3.34 -18.34 2.68 -18 2 C-15.234375 1.3671875 -15.234375 1.3671875 -11.75 0.875 C-10.61046875 0.70742188 -9.4709375 0.53984375 -8.296875 0.3671875 C-5.48904378 0.05446696 -2.81986816 -0.07420706 0 0 Z " fill="#475184" transform="translate(858,686)"/>
<path d="M0 0 C0.33 0 0.66 0 1 0 C1.36120401 5.4180602 1.36120401 5.4180602 -0.125 7.8125 C-2.66676215 9.42228269 -5.0398108 9.67109009 -8 10 C-7.59007812 9.52949219 -7.18015625 9.05898438 -6.7578125 8.57421875 C-6.21898437 7.95160156 -5.68015625 7.32898438 -5.125 6.6875 C-4.59132813 6.07261719 -4.05765625 5.45773437 -3.5078125 4.82421875 C-1.8359553 2.86501788 -1.8359553 2.86501788 0 0 Z " fill="#727CB4" transform="translate(547,430)"/>
<path d="M0 0 C0.99 0.33 1.98 0.66 3 1 C1.64486335 5.06540996 -0.30796918 5.97300269 -4 8 C-6.19921875 7.609375 -6.19921875 7.609375 -8 7 C-6.74057614 5.80040625 -5.46704714 4.61560557 -4.1875 3.4375 C-3.12595703 2.44556641 -3.12595703 2.44556641 -2.04296875 1.43359375 C-1.36878906 0.96050781 -0.69460938 0.48742187 0 0 Z " fill="#7781B4" transform="translate(339,434)"/>
<path d="M0 0 C1.36206217 2.72412435 0.37881522 4.13653126 -0.47949219 6.91845703 C-1.42591693 10.70326816 -1.47475722 14.55309815 -1.625 18.4375 C-1.66367187 19.26443359 -1.70234375 20.09136719 -1.7421875 20.94335938 C-1.83553092 22.96191073 -1.91880961 24.98092331 -2 27 C-2.33 27 -2.66 27 -3 27 C-3.08767555 23.62516587 -3.14061628 20.25062785 -3.1875 16.875 C-3.21263672 15.92367188 -3.23777344 14.97234375 -3.26367188 13.9921875 C-3.32056144 8.53078926 -3.04470749 4.7468668 0 0 Z " fill="#C2C8D9" transform="translate(467,386)"/>
<path d="M0 0 C1.39035371 4.17106112 -0.09769194 7.18206859 -1.4375 11.1875 C-1.68048828 11.93708984 -1.92347656 12.68667969 -2.17382812 13.45898438 C-2.77465056 15.30857501 -3.38629678 17.15464327 -4 19 C-4.33 19 -4.66 19 -5 19 C-4.4175393 12.24039028 -3.85050467 5.77575701 0 0 Z " fill="#3E5287" transform="translate(392,744)"/>
<path d="M0 0 C4.20240011 3.71750779 6.99782679 8.31660979 10 13 C9.67 13.66 9.34 14.32 9 15 C8.34 14.67 7.68 14.34 7 14 C7 13.01 7 12.02 7 11 C6.38125 10.95875 5.7625 10.9175 5.125 10.875 C3 10 3 10 1.8125 7.1875 C1.544375 6.135625 1.27625 5.08375 1 4 C0.79375 3.21625 0.5875 2.4325 0.375 1.625 C0.25125 1.08875 0.1275 0.5525 0 0 Z " fill="#424F88" transform="translate(920,146)"/>
<path d="M0 0 C5.43614072 2.7832093 9.93265026 5.40783094 14 10 C13.01 10 12.02 10 11 10 C11 9.34 11 8.68 11 8 C9.68 8 8.36 8 7 8 C7 7.34 7 6.68 7 6 C6.34 6 5.68 6 5 6 C5 5.34 5 4.68 5 4 C3.68 4 2.36 4 1 4 C0.67 2.68 0.34 1.36 0 0 Z " fill="#414D88" transform="translate(897,127)"/>
<path d="M0 0 C1.32 0.33 2.64 0.66 4 1 C3.34 3.97 2.68 6.94 2 10 C1.01 10 0.02 10 -1 10 C-1 10.66 -1 11.32 -1 12 C-1.66 11.67 -2.32 11.34 -3 11 C-2.34 10.01 -1.68 9.02 -1 8 C-0.54860541 5.9507906 -0.54860541 5.9507906 -0.375 3.8125 C-0.25125 2.554375 -0.1275 1.29625 0 0 Z " fill="#4E5E9F" transform="translate(919,628)"/>
<path d="M0 0 C4.08378283 0.74250597 8.01939223 1.82923301 12 3 C11.67 4.32 11.34 5.64 11 7 C7.04 5.35 3.08 3.7 -1 2 C-0.67 1.34 -0.34 0.68 0 0 Z " fill="#7883B2" transform="translate(319,359)"/>
<path d="M0 0 C2.97 0.33 5.94 0.66 9 1 C9.33 2.32 9.66 3.64 10 5 C10.66 5 11.32 5 12 5 C12 5.66 12 6.32 12 7 C7.39104317 5.68315519 3.85859765 3.84801255 0 1 C0 0.67 0 0.34 0 0 Z " fill="#475288" transform="translate(123,678)"/>
<path d="M0 0 C6.57142857 5.14285714 6.57142857 5.14285714 8 9 C6.68 9 5.36 9 4 9 C3.67 7.35 3.34 5.7 3 4 C1.35 4 -0.3 4 -2 4 C-2 3.01 -2 2.02 -2 1 C-1.34 0.67 -0.68 0.34 0 0 Z " fill="#D9DDE3" transform="translate(745,369)"/>
<path d="M0 0 C0 0.33 0 0.66 0 1 C-2.93782469 0.85924795 -5.87515171 0.7126162 -8.8125 0.5625 C-9.64587891 0.52318359 -10.47925781 0.48386719 -11.33789062 0.44335938 C-12.54155273 0.38051758 -12.54155273 0.38051758 -13.76953125 0.31640625 C-14.50792236 0.27974854 -15.24631348 0.24309082 -16.00708008 0.20532227 C-18 0 -18 0 -21 -1 C-13.18776564 -3.3555327 -7.64697887 -2.70406477 0 0 Z " fill="#5361A2" transform="translate(878,121)"/>
<path d="M0 0 C0.99 0.33 1.98 0.66 3 1 C0.66666667 3.33333333 -1.66666667 5.66666667 -4 8 C-6.125 7.625 -6.125 7.625 -8 7 C-7.34 7 -6.68 7 -6 7 C-5.67 6.01 -5.34 5.02 -5 4 C-2.625 1.75 -2.625 1.75 0 0 Z " fill="#5363A2" transform="translate(913,638)"/>
<path d="M0 0 C3.3 0.33 6.6 0.66 10 1 C6.36654198 2.81672901 2.73757294 4.41871914 -1 6 C-0.67 4.02 -0.34 2.04 0 0 Z " fill="#707CB6" transform="translate(691,359)"/>
<path d="M0 0 C0.99 0 1.98 0 3 0 C2.34 2.97 1.68 5.94 1 9 C0.34 9 -0.32 9 -1 9 C-1.33 9.66 -1.66 10.32 -2 11 C-2 8.69 -2 6.38 -2 4 C-1.34 4 -0.68 4 0 4 C0 2.68 0 1.36 0 0 Z " fill="#475792" transform="translate(399,716)"/>
<path d="M0 0 C0.33 0 0.66 0 1 0 C0.63495936 5.66442374 -0.0554321 10.00703705 -3 15 C-3.33 15 -3.66 15 -4 15 C-4 13.35 -4 11.7 -4 10 C-3.34 10 -2.68 10 -2 10 C-2.04125 8.906875 -2.0825 7.81375 -2.125 6.6875 C-2 3 -2 3 0 0 Z " fill="#3B4D85" transform="translate(935,604)"/>
<path d="M0 0 C0.66 0.33 1.32 0.66 2 1 C1.34 1.66 0.68 2.32 0 3 C-0.28875 3.845625 -0.5775 4.69125 -0.875 5.5625 C-2 8 -2 8 -4 8.9375 C-4.99 8.9684375 -4.99 8.9684375 -6 9 C-6.66 8.34 -7.32 7.68 -8 7 C-5.36 4.69 -2.72 2.38 0 0 Z " fill="#7781B3" transform="translate(749,434)"/>
<path d="M0 0 C0.66 0 1.32 0 2 0 C1.43454163 3.95820859 0.19097652 6.6659053 -2 10 C-3.32 9.67 -4.64 9.34 -6 9 C-5.34 9 -4.68 9 -4 9 C-4 8.01 -4 7.02 -4 6 C-3.34 6 -2.68 6 -2 6 C-1.34 4.02 -0.68 2.04 0 0 Z " fill="#5B68A1" transform="translate(264,376)"/>
<path d="M0 0 C-0.54087318 3.78611227 -2.11722332 5.55400767 -5 8 C-5.66 8 -6.32 8 -7 8 C-6.44414399 4.1090079 -4.34122117 0 0 0 Z " fill="#5B67A3" transform="translate(276,365)"/>
<path d="M0 0 C0.33 0.66 0.66 1.32 1 2 C1.66 2 2.32 2 3 2 C3 6.62 3 11.24 3 16 C1.04612336 12.09224671 0.65237766 10.00312413 0.375 5.75 C0.30023437 4.67234375 0.22546875 3.5946875 0.1484375 2.484375 C0.09945312 1.66453125 0.05046875 0.8446875 0 0 Z " fill="#5666A7" transform="translate(933,176)"/>
<path d="M0 0 C0.33 0.99 0.66 1.98 1 3 C-0.32 3 -1.64 3 -3 3 C-3 3.66 -3 4.32 -3 5 C-5.875 5.625 -5.875 5.625 -9 6 C-9.66 5.34 -10.32 4.68 -11 4 C-9.5437455 3.32880451 -8.08492133 2.66318193 -6.625 2 C-5.81289062 1.62875 -5.00078125 1.2575 -4.1640625 0.875 C-2 0 -2 0 0 0 Z " fill="#435291" transform="translate(163,124)"/>
<path d="M0 0 C3.65316671 1.24976756 4.78065836 1.67098753 7 5 C7.125 7.6875 7.125 7.6875 7 10 C3.66442368 7.0094833 1.84916079 4.06815373 0 0 Z " fill="#4F5C9B" transform="translate(296,799)"/>
<path d="M0 0 C2.97 0 5.94 0 9 0 C8.01 2.31 7.02 4.62 6 7 C5.566875 6.360625 5.13375 5.72125 4.6875 5.0625 C3.08760823 2.73253997 3.08760823 2.73253997 0 2 C0 1.34 0 0.68 0 0 Z " fill="#485592" transform="translate(402,690)"/>
<path d="M0 0 C0.66 0.33 1.32 0.66 2 1 C2 1.99 2 2.98 2 4 C1.34 4 0.68 4 0 4 C0 5.32 0 6.64 0 8 C-0.99 8 -1.98 8 -3 8 C-3 8.66 -3 9.32 -3 10 C-3.99 9.67 -4.98 9.34 -6 9 C-4.02 6.03 -2.04 3.06 0 0 Z " fill="#7580B5" transform="translate(757,422)"/>
<path d="M0 0 C1.12894876 0.93274109 2.25300876 1.87140122 3.375 2.8125 C4.00148438 3.33457031 4.62796875 3.85664063 5.2734375 4.39453125 C7 6 7 6 9 9 C8.01 9.495 8.01 9.495 7 10 C7 9.34 7 8.68 7 8 C6.01 8 5.02 8 4 8 C2.0276801 6.0276801 1.10526098 4.52631081 0 2 C0 1.34 0 0.68 0 0 Z " fill="#434F8A" transform="translate(911,137)"/>
<path d="M0 0 C0 0.99 0 1.98 0 3 C-5.94 2.67 -11.88 2.34 -18 2 C-18 1.67 -18 1.34 -18 1 C-15.37504621 0.83257698 -12.75004205 0.6660283 -10.125 0.5 C-9.00544922 0.42845703 -9.00544922 0.42845703 -7.86328125 0.35546875 C-2.2265625 0 -2.2265625 0 0 0 Z " fill="#6F74A9" transform="translate(521,449)"/>
<path d="M0 0 C0.66 0 1.32 0 2 0 C2 3.3 2 6.6 2 10 C1.34 10 0.68 10 0 10 C-1.125 6.6875 -1.125 6.6875 -2 3 C-1.34 2.01 -0.68 1.02 0 0 Z " fill="#5E6BA7" transform="translate(350,381)"/>
<path d="M0 0 C0.625 1.8125 0.625 1.8125 1 4 C0.01 5.485 0.01 5.485 -1 7 C-1.66 7 -2.32 7 -3 7 C-3.33 8.65 -3.66 10.3 -4 12 C-4.66 12 -5.32 12 -6 12 C-4.68139111 7.38486888 -2.78644563 3.90102388 0 0 Z " fill="#3C4E84" transform="translate(98,177)"/>
<path d="M0 0 C-1.90401138 1.90401138 -3.33425686 2.93520439 -6.046875 3.19921875 C-8.03233273 3.1886578 -10.0169914 3.09915043 -12 3 C-8.61613364 -0.38386636 -4.56431325 -1.75550509 0 0 Z " fill="#3B4B81" transform="translate(175,121)"/>
<path d="M0 0 C0.66 0 1.32 0 2 0 C1.71640113 1.4391134 1.42278601 2.87625518 1.125 4.3125 C0.88136719 5.51326172 0.88136719 5.51326172 0.6328125 6.73828125 C0 9 0 9 -2 12 C-2.17835515 7.45194365 -1.99785435 4.1205746 0 0 Z " fill="#384A7E" transform="translate(383,770)"/>
<path d="M0 0 C5.61 0.33 11.22 0.66 17 1 C17 1.33 17 1.66 17 2 C8.585 2.495 8.585 2.495 0 3 C0 2.01 0 1.02 0 0 Z " fill="#5D67A5" transform="translate(499,450)"/>
<path d="M0 0 C-3.52679099 2.35119399 -5.02879485 2.21443452 -9.1875 2.125 C-10.27417969 2.10695313 -11.36085938 2.08890625 -12.48046875 2.0703125 C-13.72763672 2.03550781 -13.72763672 2.03550781 -15 2 C-15 1.67 -15 1.34 -15 1 C-13.25215171 0.63536268 -11.50159498 0.2836922 -9.75 -0.0625 C-8.28820312 -0.35833984 -8.28820312 -0.35833984 -6.796875 -0.66015625 C-4.131881 -0.98397535 -2.51128277 -0.85503199 0 0 Z " fill="#4F5B98" transform="translate(317,450)"/>
<path d="M0 0 C0.99 0 1.98 0 3 0 C4.6875 2.5 4.6875 2.5 6 5 C4.35 5.33 2.7 5.66 1 6 C-0.0625 4.125 -0.0625 4.125 -1 2 C-0.67 1.34 -0.34 0.68 0 0 Z " fill="#5C67A6" transform="translate(473,434)"/>
<path d="M0 0 C0.66 0.33 1.32 0.66 2 1 C0.875 3.5 0.875 3.5 -1 6 C-4.1875 6.3125 -4.1875 6.3125 -7 6 C-4.74259377 3.66475218 -2.7194239 1.81294927 0 0 Z " fill="#3D4D88" transform="translate(150,129)"/>
<path d="M0 0 C0.66 0 1.32 0 2 0 C2 0.66 2 1.32 2 2 C4.475 2.99 4.475 2.99 7 4 C7 5.98 7 7.96 7 10 C3.66442368 7.0094833 1.84916079 4.06815373 0 0 Z " fill="#4C5994" transform="translate(281,777)"/>
<path d="M0 0 C1.32 0.33 2.64 0.66 4 1 C4 1.99 4 2.98 4 4 C4.66 4 5.32 4 6 4 C6.33 5.98 6.66 7.96 7 10 C3.66442368 7.0094833 1.84916079 4.06815373 0 0 Z " fill="#48538D" transform="translate(265,753)"/>
<path d="M0 0 C0.99 0.33 1.98 0.66 3 1 C2.25 5.75 2.25 5.75 0 8 C-1 7 -1 7 -1.125 4 C-1 1 -1 1 0 0 Z " fill="#5B67A1" transform="translate(465,381)"/>
<path d="M0 0 C1.32 0 2.64 0 4 0 C4.12375 0.804375 4.2475 1.60875 4.375 2.4375 C4.684375 3.7059375 4.684375 3.7059375 5 5 C5.66 5.33 6.32 5.66 7 6 C6.67 6.66 6.34 7.32 6 8 C5.34 8 4.68 8 4 8 C2.68 5.36 1.36 2.72 0 0 Z " fill="#ECEDEF" transform="translate(744,373)"/>
<path d="M0 0 C0.99 0.495 0.99 0.495 2 1 C2.625 3.0625 2.625 3.0625 3 5 C3.66 5 4.32 5 5 5 C5.33 6.65 5.66 8.3 6 10 C2.46413986 6.82679218 0.41421969 4.83256305 0 0 Z " fill="#44528D" transform="translate(99,653)"/>
<path d="M0 0 C0.33 0 0.66 0 1 0 C1 1.98 1 3.96 1 6 C0.34 6 -0.32 6 -1 6 C-1.103125 6.639375 -1.20625 7.27875 -1.3125 7.9375 C-1.539375 8.618125 -1.76625 9.29875 -2 10 C-2.99 10.33 -3.98 10.66 -5 11 C-3.55049545 7.2089881 -1.84827434 3.6125362 0 0 Z " fill="#5767A6" transform="translate(930,614)"/>
<path d="M0 0 C0.33 0 0.66 0 1 0 C1 1.98 1 3.96 1 6 C1.66 6.33 2.32 6.66 3 7 C2.67 7.66 2.34 8.32 2 9 C1.01 9 0.02 9 -1 9 C-1.33 10.32 -1.66 11.64 -2 13 C-2.33 12.34 -2.66 11.68 -3 11 C-2.34938905 9.32700041 -1.67966676 7.66140763 -1 6 C-0.62406934 4.0075675 -0.28020455 2.0081326 0 0 Z " fill="#838EB9" transform="translate(554,411)"/>
<path d="M0 0 C0.99 0 1.98 0 3 0 C3 2.97 3 5.94 3 9 C2.01 9.495 2.01 9.495 1 10 C0.67 6.7 0.34 3.4 0 0 Z " fill="#5B68A7" transform="translate(557,397)"/>
<path d="M0 0 C1.25425781 0.00902344 2.50851562 0.01804687 3.80078125 0.02734375 C4.75339844 0.03894531 5.70601563 0.05054688 6.6875 0.0625 C6.6875 0.3925 6.6875 0.7225 6.6875 1.0625 C5.84445312 1.12308594 5.00140625 1.18367188 4.1328125 1.24609375 C3.03710938 1.32988281 1.94140625 1.41367187 0.8125 1.5 C-0.27804687 1.58121094 -1.36859375 1.66242188 -2.4921875 1.74609375 C-5.25978971 1.89251703 -5.25978971 1.89251703 -7.3125 3.0625 C-8.98904729 2.78307545 -10.65858154 2.45421753 -12.3125 2.0625 C-12.3125 1.7325 -12.3125 1.4025 -12.3125 1.0625 C-8.15623632 0.05323521 -4.26884906 -0.03989579 0 0 Z " fill="#D0D6DE" transform="translate(304.3125,357.9375)"/>
<path d="M0 0 C0 0.33 0 0.66 0 1 C-2.31 1 -4.62 1 -7 1 C-7 1.66 -7 2.32 -7 3 C-9.97 3 -12.94 3 -16 3 C-16 2.67 -16 2.34 -16 2 C-10.51324804 0.13216954 -5.77807024 -0.2358396 0 0 Z " fill="#334176" transform="translate(190,117)"/>
<path d="M0 0 C3.96 1.98 3.96 1.98 8 4 C7.01 4.66 6.02 5.32 5 6 C2.5 4.6875 2.5 4.6875 0 3 C0 2.01 0 1.02 0 0 Z " fill="#DCE0E5" transform="translate(737,364)"/>
<path d="M0 0 C1.134375 0.020625 2.26875 0.04125 3.4375 0.0625 C2.4475 0.7225 1.4575 1.3825 0.4375 2.0625 C-0.243125 2.59875 -0.92375 3.135 -1.625 3.6875 C-3.5625 5.0625 -3.5625 5.0625 -5.5625 5.0625 C-4.43693182 0.07784091 -4.43693182 0.07784091 0 0 Z " fill="#737EB3" transform="translate(485.5625,362.9375)"/>
<path d="M0 0 C3.33537489 1.11179163 4.63707344 2.47411298 7 5 C6.67 5.66 6.34 6.32 6 7 C3.36 5.68 0.72 4.36 -2 3 C-1.34 2.67 -0.68 2.34 0 2 C0 1.34 0 0.68 0 0 Z " fill="#7F8AB5" transform="translate(529,359)"/>
<path d="M0 0 C2.375 0.25 2.375 0.25 5 1 C6.3125 3.0625 6.3125 3.0625 7 5 C6.01 5.495 6.01 5.495 5 6 C5 5.34 5 4.68 5 4 C4.360625 3.896875 3.72125 3.79375 3.0625 3.6875 C2.381875 3.460625 1.70125 3.23375 1 3 C0.67 2.01 0.34 1.02 0 0 Z " fill="#4F5B99" transform="translate(249,729)"/>
<path d="M0 0 C0.66 0.33 1.32 0.66 2 1 C0.35 3.64 -1.3 6.28 -3 9 C-3.33 7.68 -3.66 6.36 -4 5 C-3.34 4.67 -2.68 4.34 -2 4 C-2 3.34 -2 2.68 -2 2 C-1.34 2 -0.68 2 0 2 C0 1.34 0 0.68 0 0 Z " fill="#384A81" transform="translate(925,628)"/>
<path d="M0 0 C1.98 0.495 1.98 0.495 4 1 C3.34 2.32 2.68 3.64 2 5 C1.01 5 0.02 5 -1 5 C-0.67 3.35 -0.34 1.7 0 0 Z " fill="#E4E7EA" transform="translate(542,430)"/>
<path d="M0 0 C0.99 0.33 1.98 0.66 3 1 C1.35 2.98 -0.3 4.96 -2 7 C-2.33 6.01 -2.66 5.02 -3 4 C-1.5625 1.8125 -1.5625 1.8125 0 0 Z " fill="#7B87BC" transform="translate(683,367)"/>
<path d="M0 0 C-0.33 0.99 -0.66 1.98 -1 3 C-1.99 3 -2.98 3 -4 3 C-4.33 3.99 -4.66 4.98 -5 6 C-5.99 5.01 -6.98 4.02 -8 3 C-2.25 0 -2.25 0 0 0 Z " fill="#D6DDE4" transform="translate(697,362)"/>
<path d="M0 0 C-3.75 2 -3.75 2 -6 2 C-6 2.66 -6 3.32 -6 4 C-8.97 3.505 -8.97 3.505 -12 3 C-3.33333333 -1.66666667 -3.33333333 -1.66666667 0 0 Z " fill="#D7DCE2" transform="translate(709,359)"/>
<path d="M0 0 C2.64 0.33 5.28 0.66 8 1 C8 1.33 8 1.66 8 2 C3.05 3.485 3.05 3.485 -2 5 C-1.34 3.35 -0.68 1.7 0 0 Z " fill="#7781B6" transform="translate(283,359)"/>
<path d="M0 0 C0.99 0.33 1.98 0.66 3 1 C2.6875 2.9375 2.6875 2.9375 2 5 C1.01 5.33 0.02 5.66 -1 6 C-1.625 4.125 -1.625 4.125 -2 2 C-1.34 1.34 -0.68 0.68 0 0 Z " fill="#5361A4" transform="translate(152,129)"/>
<path d="M0 0 C2.86724686 0.57344937 3.8614515 0.8614515 6 3 C5.34 3 4.68 3 4 3 C4 3.66 4 4.32 4 5 C4.66 5.33 5.32 5.66 6 6 C5.01 6 4.02 6 3 6 C2.01 4.02 1.02 2.04 0 0 Z " fill="#4A568F" transform="translate(289,789)"/>
<path d="M0 0 C0.33 1.32 0.66 2.64 1 4 C-0.65 4.33 -2.3 4.66 -4 5 C-4.33 4.34 -4.66 3.68 -5 3 C-2.25 0 -2.25 0 0 0 Z " fill="#5C68A7" transform="translate(469,424)"/>
<path d="M0 0 C2.64 0 5.28 0 8 0 C6.8125 1.5625 6.8125 1.5625 5 3 C2.3125 2.6875 2.3125 2.6875 0 2 C0 1.34 0 0.68 0 0 Z " fill="#5764A4" transform="translate(163,124)"/>
<path d="M0 0 C1.093125 0.0825 2.18625 0.165 3.3125 0.25 C0.10913178 3.08374881 -2.46837253 3.7705537 -6.6875 4.25 C-4.79150483 0.68106792 -4.16790733 0.28256999 0 0 Z " fill="#505E9B" transform="translate(177.6875,119.75)"/>
<path d="M0 0 C0.66 0 1.32 0 2 0 C2 0.99 2 1.98 2 3 C2.99 3.33 3.98 3.66 5 4 C5 4.66 5 5.32 5 6 C3.68 6 2.36 6 1 6 C0.67 4.02 0.34 2.04 0 0 Z " fill="#505C9A" transform="translate(241,714)"/>
<path d="M0 0 C0.66 0 1.32 0 2 0 C2 0.99 2 1.98 2 3 C2.66 3.33 3.32 3.66 4 4 C3.01 4.99 2.02 5.98 1 7 C-1 4 -1 4 -0.625 1.8125 C-0.41875 1.214375 -0.2125 0.61625 0 0 Z " fill="#5B6CA9" transform="translate(903,641)"/>
<path d="M0 0 C2.475 0.99 2.475 0.99 5 2 C4.67 2.66 4.34 3.32 4 4 C3.01 4.33 2.02 4.66 1 5 C0.34 3.68 -0.32 2.36 -1 1 C-0.67 0.67 -0.34 0.34 0 0 Z " fill="#5A659F" transform="translate(481,441)"/>
<path d="M0 0 C0.33 1.32 0.66 2.64 1 4 C0.01 4.66 -0.98 5.32 -2 6 C-2.99 5.67 -3.98 5.34 -5 5 C-3.35 3.35 -1.7 1.7 0 0 Z " fill="#7983B7" transform="translate(544,434)"/>
<path d="M0 0 C0.99 0 1.98 0 3 0 C3.33 1.32 3.66 2.64 4 4 C3.34 4 2.68 4 2 4 C1.67 4.66 1.34 5.32 1 6 C0 5 0 5 -0.0625 2.4375 C-0.041875 1.633125 -0.02125 0.82875 0 0 Z " fill="#5868A2" transform="translate(262,426)"/>
<path d="M0 0 C0.66 0 1.32 0 2 0 C2 2.31 2 4.62 2 7 C1.01 6.67 0.02 6.34 -1 6 C-0.67 4.02 -0.34 2.04 0 0 Z " fill="#7983B8" transform="translate(759,416)"/>
<path d="M0 0 C0.99 0.33 1.98 0.66 3 1 C2.67 2.32 2.34 3.64 2 5 C0.68 4.67 -0.64 4.34 -2 4 C-1.34 2.68 -0.68 1.36 0 0 Z " fill="#47558E" transform="translate(258,386)"/>
<path d="M0 0 C1.98 0 3.96 0 6 0 C6 0.99 6 1.98 6 3 C4.68 3.33 3.36 3.66 2 4 C2 3.34 2 2.68 2 2 C1.34 2 0.68 2 0 2 C0 1.34 0 0.68 0 0 Z " fill="#5F6AA3" transform="translate(538,365)"/>
<path d="M0 0 C7.75 -0.125 7.75 -0.125 10 1 C10 1.66 10 2.32 10 3 C6.7 2.34 3.4 1.68 0 1 C0 0.67 0 0.34 0 0 Z " fill="#848DBE" transform="translate(722,358)"/>
<path d="M0 0 C1.98 0 3.96 0 6 0 C6.33 0.99 6.66 1.98 7 3 C4.69 2.67 2.38 2.34 0 2 C0 1.34 0 0.68 0 0 Z " fill="#6C82C0" transform="translate(865,151)"/>
</svg>
